<svg width="70" height="70" viewBox="0 0 70 70" fill="none" xmlns="http://www.w3.org/2000/svg">
<rect width="70" height="70" rx="8" fill="#4DAA57"/>
<path d="M43.4583 51.625V48.0417C43.4583 46.1409 42.7032 44.3181 41.3592 42.9741C40.0152 41.6301 38.1923 40.875 36.2916 40.875H21.9583C20.0576 40.875 18.2347 41.6301 16.8907 42.9741C15.5467 44.3181 14.7916 46.1409 14.7916 48.0417V51.625" stroke="white" stroke-width="2" stroke-linecap="round" stroke-linejoin="round"/>
<path d="M29.125 33.7083C33.0831 33.7083 36.2917 30.4997 36.2917 26.5417C36.2917 22.5836 33.0831 19.375 29.125 19.375C25.167 19.375 21.9584 22.5836 21.9584 26.5417C21.9584 30.4997 25.167 33.7083 29.125 33.7083Z" stroke="white" stroke-width="2" stroke-linecap="round" stroke-linejoin="round"/>
<path d="M54.2084 51.625V48.0417C54.2072 46.4538 53.6787 44.9112 52.7058 43.6562C51.733 42.4012 50.3709 41.5049 48.8334 41.1079" stroke="white" stroke-width="2" stroke-linecap="round" stroke-linejoin="round"/>
<path d="M41.6666 19.6079C43.2082 20.0026 44.5746 20.8992 45.5503 22.1562C46.5261 23.4133 47.0557 24.9593 47.0557 26.5506C47.0557 28.1419 46.5261 29.688 45.5503 30.945C44.5746 32.2021 43.2082 33.0986 41.6666 33.4933" stroke="white" stroke-width="2" stroke-linecap="round" stroke-linejoin="round"/>
</svg>
