<svg width="70" height="70" viewBox="0 0 70 70" fill="none" xmlns="http://www.w3.org/2000/svg">
<rect width="70" height="70" rx="8" fill="#EB5757"/>
<g clip-path="url(#clip0)">
<path d="M26.25 46.25V50C26.25 50.9946 25.8549 51.9484 25.1517 52.6516C24.4484 53.3549 23.4946 53.75 22.5 53.75H40C40.9946 53.75 41.9484 53.3549 42.6516 52.6516C43.3549 51.9484 43.75 50.9946 43.75 50V21.5167C43.75 20.5733 44.48 16.25 48.75 16.25C50.0761 16.25 51.3479 16.7768 52.2855 17.7145C53.2232 18.6521 53.75 19.9239 53.75 21.25V26.25H43.75" stroke="white" stroke-width="2" stroke-linecap="round" stroke-linejoin="round"/>
<path d="M48.75 16.25H33.75" stroke="white" stroke-width="2" stroke-linecap="round" stroke-linejoin="round"/>
<path d="M19.5617 29.9717L18.22 39.77C18.1725 40.0322 18.2099 40.3028 18.3268 40.5423C18.4437 40.7818 18.634 40.9778 18.87 41.1016C19.1059 41.2255 19.3753 41.2708 19.6388 41.2309C19.9023 41.191 20.1462 41.0681 20.335 40.88L23.75 37.4633L27.1667 40.88C27.3555 41.0681 27.5994 41.191 27.8629 41.2309C28.1264 41.2708 28.3958 41.2255 28.6318 41.1016C28.8678 40.9778 29.058 40.7818 29.1749 40.5423C29.2918 40.3028 29.3292 40.0322 29.2817 39.77L27.9484 29.9717" stroke="white" stroke-width="2" stroke-linecap="round" stroke-linejoin="round"/>
<path d="M23.75 31.25C27.8921 31.25 31.25 27.8921 31.25 23.75C31.25 19.6079 27.8921 16.25 23.75 16.25C19.6079 16.25 16.25 19.6079 16.25 23.75C16.25 27.8921 19.6079 31.25 23.75 31.25Z" stroke="white" stroke-width="2" stroke-linecap="round" stroke-linejoin="round"/>
<path d="M23.75 23.125C23.6264 23.125 23.5055 23.1617 23.4028 23.2303C23.3 23.299 23.2199 23.3966 23.1726 23.5108C23.1253 23.625 23.1129 23.7507 23.137 23.8719C23.1611 23.9932 23.2207 24.1045 23.3081 24.1919C23.3955 24.2793 23.5068 24.3389 23.6281 24.363C23.7493 24.3871 23.875 24.3747 23.9892 24.3274C24.1034 24.2801 24.201 24.2 24.2697 24.0972C24.3383 23.9945 24.375 23.8736 24.375 23.75C24.375 23.5842 24.3092 23.4253 24.1919 23.3081C24.0747 23.1908 23.9158 23.125 23.75 23.125Z" stroke="white" stroke-width="2" stroke-linecap="round" stroke-linejoin="round"/>
</g>
<defs>
<clipPath id="clip0">
<rect width="40" height="40" fill="white" transform="translate(15 15)"/>
</clipPath>
</defs>
</svg>
