<svg width="18" height="23" viewBox="0 0 18 23" fill="none" xmlns="http://www.w3.org/2000/svg">
<path d="M15.0291 12.2204C15.0041 9.31201 17.3129 7.91576 17.4173 7.84768C16.1181 5.87063 14.0961 5.59978 13.3748 5.56791C11.655 5.38687 10.0174 6.62089 9.14571 6.62089C8.27399 6.62089 6.92602 5.59399 5.50008 5.62296C3.62296 5.65192 1.89483 6.75705 0.92842 8.50381C-1.01972 12.0191 0.43129 17.2289 2.32791 20.0823C3.25672 21.4771 4.36238 23.0486 5.81618 22.9906C7.21706 22.9327 7.74622 22.0492 9.43674 22.0492C11.1273 22.0492 11.6035 22.9906 13.0838 22.9631C14.5891 22.9327 15.5444 21.5379 16.4662 20.1387C17.5301 18.5194 17.9701 16.9523 17.9952 16.8697C17.9618 16.8552 15.0598 15.698 15.0291 12.2204Z" fill="#B3B3B3"/>
<path d="M12.2482 3.67996C13.0196 2.70809 13.5404 1.35672 13.397 0.00976562C12.2856 0.0561644 10.9405 0.780326 10.1426 1.7522C9.42826 2.61113 8.80163 3.98707 8.97144 5.3066C10.2108 5.40654 11.4766 4.65041 12.2482 3.67996Z" fill="#B3B3B3"/>
</svg>
