<svg width="21" height="21" viewBox="0 0 21 21" fill="none" xmlns="http://www.w3.org/2000/svg">
<path fill-rule="evenodd" clip-rule="evenodd" d="M4.39116 10.4993C4.39116 9.83244 4.50427 9.1931 4.70616 8.59344L1.17243 5.95117C0.483726 7.32037 0.0957031 8.86317 0.0957031 10.4993C0.0957031 12.134 0.483249 13.6759 1.171 15.0442L4.70282 12.3968C4.50284 11.7999 4.39116 11.1629 4.39116 10.4993Z" fill="#FBBC05"/>
<path fill-rule="evenodd" clip-rule="evenodd" d="M10.5951 4.43242C12.0747 4.43242 13.4111 4.94576 14.4611 5.78576L17.5156 2.79909C15.6542 1.21242 13.2679 0.232422 10.5951 0.232422C6.44574 0.232422 2.87956 2.55595 1.17188 5.95095L4.7056 8.59322C5.51983 6.17309 7.84081 4.43242 10.5951 4.43242Z" fill="#EA4335"/>
<path fill-rule="evenodd" clip-rule="evenodd" d="M10.5951 16.5651C7.84081 16.5651 5.51983 14.8244 4.7056 12.4043L1.17188 15.0461C2.87956 18.4416 6.44574 20.7651 10.5951 20.7651C13.1562 20.7651 15.6013 19.8747 17.4364 18.2064L14.0821 15.6672C13.1357 16.251 11.9439 16.5651 10.5951 16.5651Z" fill="#34A853"/>
<path fill-rule="evenodd" clip-rule="evenodd" d="M20.6184 10.4995C20.6184 9.89281 20.523 9.23948 20.3798 8.63281H10.5957V12.5995H16.2275C15.9459 13.9519 15.1794 14.9916 14.0827 15.6683L17.4369 18.2074C19.3646 16.4555 20.6184 13.8459 20.6184 10.4995Z" fill="#4285F4"/>
</svg>
