<svg width="18" height="19" viewBox="0 0 18 19" fill="none" xmlns="http://www.w3.org/2000/svg">
<path d="M10.5 2H4.5C4.10218 2 3.72064 2.15804 3.43934 2.43934C3.15804 2.72064 3 3.10218 3 3.5V15.5C3 15.8978 3.15804 16.2794 3.43934 16.5607C3.72064 16.842 4.10218 17 4.5 17H13.5C13.8978 17 14.2794 16.842 14.5607 16.5607C14.842 16.2794 15 15.8978 15 15.5V6.5L10.5 2Z" stroke="#A0A3BD" stroke-linecap="round" stroke-linejoin="round"/>
<path d="M10.5 2V6.5H15" stroke="#A0A3BD" stroke-linecap="round" stroke-linejoin="round"/>
<path d="M12 10.25H6" stroke="#A0A3BD" stroke-linecap="round" stroke-linejoin="round"/>
<path d="M12 13.25H6" stroke="#A0A3BD" stroke-linecap="round" stroke-linejoin="round"/>
<path d="M7.5 7.25H6.75H6" stroke="#A0A3BD" stroke-linecap="round" stroke-linejoin="round"/>
</svg>
