<svg width="100" height="100" viewBox="0 0 100 100" fill="none" xmlns="http://www.w3.org/2000/svg">
<g clip-path="url(#clip0)">
<path d="M19.7307 43.7065H33.1618V74.6231H19.7307V43.7065Z" fill="#F7A32C"/>
<path d="M43.2847 43.7065H56.7157V74.6231H43.2847V43.7065Z" fill="#F7A32C"/>
<path d="M66.8384 43.7065H80.2694V74.6231H66.8384V43.7065Z" fill="#F7A32C"/>
<path d="M10.4565 37.9572H12.7161V43.7062C12.7161 44.785 13.5907 45.6594 14.6692 45.6594H85.3308C86.4093 45.6594 87.2839 44.785 87.2839 43.7062V37.9572H89.5435C90.6222 37.9572 91.4966 37.0828 91.4966 36.0041V26.4611C91.4966 25.3824 90.6222 24.508 89.5435 24.508H87.2915L50.8489 6.92441C50.3126 6.66562 49.6878 6.66562 49.1515 6.92441L12.7085 24.5082H10.4565C9.37783 24.5082 8.50342 25.3826 8.50342 26.4613V36.0043C8.50342 37.0828 9.37803 37.9572 10.4565 37.9572ZM16.6224 37.9572H36.27V41.7531H16.6224V37.9572ZM40.1763 37.9572H59.8239V41.7531H40.1763V37.9572ZM83.3778 41.7533H63.7302V37.9574H83.3778V41.7533ZM87.5905 34.051H12.4097V28.4142H87.5905V34.051ZM50.0001 10.8519L78.3026 24.508H21.6976L50.0001 10.8519Z" fill="#22215B"/>
<path d="M98.0469 89.3635H95.0967V82.325C95.0967 81.2463 94.2221 80.3719 93.1436 80.3719H87.284V74.6229C87.284 73.5442 86.4094 72.6697 85.3309 72.6697H14.6691C13.5906 72.6697 12.716 73.5442 12.716 74.6229V80.3719H6.85645C5.77793 80.3719 4.90332 81.2463 4.90332 82.325V89.3635H1.95312C0.874414 89.3635 0 90.2379 0 91.3166C0 92.3953 0.874414 93.2697 1.95312 93.2697H98.0469C99.1254 93.2697 100 92.3953 100 91.3166C100 90.2379 99.1254 89.3635 98.0469 89.3635ZM83.3777 80.3721H63.7301V76.5762H83.3777V80.3721ZM59.8238 80.3721H40.1762V76.5762H59.8238V80.3721ZM16.6223 76.576H36.2699V80.3719H16.6223V76.576ZM8.80957 89.3635V84.2781H91.1902V89.3635H8.80957Z" fill="#22215B"/>
</g>
<defs>
<clipPath id="clip0">
<rect width="100" height="100" fill="white"/>
</clipPath>
</defs>
</svg>
