<svg width="100" height="100" viewBox="0 0 100 100" fill="none" xmlns="http://www.w3.org/2000/svg">
<g clip-path="url(#clip0)">
<path d="M78.3258 58.6969C78.7072 59.0781 79.207 59.269 79.7068 59.269C80.2066 59.269 80.7064 59.0781 81.0879 58.6969L85.5562 54.2285C86.3189 53.4658 86.3189 52.2291 85.5562 51.4662L81.0879 46.9977C80.3252 46.2354 79.0888 46.2352 78.3256 46.9977C77.5629 47.7604 77.5629 48.9971 78.3256 49.76L81.4131 52.8475L78.3256 55.9348C77.5631 56.6975 77.5631 57.9342 78.3258 58.6969Z" fill="#22215B"/>
<path d="M21.6743 46.9978C20.9114 46.2353 19.675 46.2353 18.912 46.9978L14.4436 51.4664C13.6809 52.2291 13.6809 53.4658 14.4436 54.2287L18.912 58.6971C19.2934 59.0783 19.7932 59.2691 20.293 59.2691C20.7928 59.2691 21.2926 59.0783 21.6741 58.6971C22.4368 57.9344 22.4368 56.6976 21.6741 55.9347L18.5866 52.8474L21.6741 49.7599C22.437 48.9973 22.437 47.7605 21.6743 46.9978Z" fill="#22215B"/>
<path d="M98.0469 73.0402H96.2143V16.7217C96.2143 12.3334 92.6441 8.76328 88.2559 8.76328H11.7441C7.35586 8.76328 3.78574 12.3334 3.78574 16.7217V73.0402H1.95312C0.874414 73.0402 0 73.9148 0 74.9934V82.2992C0 87.2273 4.00918 91.2367 8.9375 91.2367H91.0625C95.9906 91.2367 100 87.2275 100 82.2992V74.9934C100 73.9146 99.1254 73.0402 98.0469 73.0402ZM11.7441 12.6695H88.2559C90.4902 12.6695 92.308 14.4873 92.308 16.7217V22.1584H7.69199V16.7217C7.69199 14.4873 9.50957 12.6695 11.7441 12.6695ZM7.69199 26.0646H92.308V73.0402H64.1373C63.0588 73.0402 62.1842 73.9148 62.1842 74.9934C62.1842 76.2408 61.1693 77.2557 59.9219 77.2557H40.0781C38.8307 77.2557 37.8158 76.2408 37.8158 74.9934C37.8158 73.9148 36.9412 73.0402 35.8627 73.0402H7.69199V26.0646ZM96.0938 82.2992C96.0938 85.0734 93.8367 87.3305 91.0625 87.3305H8.9375C6.16328 87.3305 3.90625 85.0734 3.90625 82.2992V76.9465H34.2264C35.0453 79.3933 37.3592 81.1619 40.0781 81.1619H59.9219C62.6408 81.1619 64.9547 79.3933 65.7736 76.9465H96.0938V82.2992Z" fill="#22215B"/>
<path d="M48.9028 19.1365H51.097C52.1755 19.1365 53.0501 18.2619 53.0501 17.1834C53.0501 16.1049 52.1755 15.2303 51.097 15.2303H48.9028C47.8243 15.2303 46.9497 16.1049 46.9497 17.1834C46.9497 18.2619 47.8241 19.1365 48.9028 19.1365Z" fill="#22215B"/>
<path d="M62.3775 32.9355H55.7179C55.7179 35.1863 53.8933 37.0109 51.6425 37.0109H48.3574C46.1066 37.0109 44.282 35.1863 44.282 32.9355H37.6224C35.0564 32.9355 30.0076 35.351 30.0076 40.5504V51.9744H37.9267V67.0646H62.0732V51.9744H69.9925V40.5504C69.9925 35.0703 64.9435 32.9355 62.3775 32.9355Z" fill="#F7A32C"/>
</g>
<defs>
<clipPath id="clip0">
<rect width="100" height="100" fill="white"/>
</clipPath>
</defs>
</svg>
