<svg width="101" height="100" viewBox="0 0 101 100" fill="none" xmlns="http://www.w3.org/2000/svg">
<g clip-path="url(#clip0)">
<path d="M27.2122 11.118V24.0693H36.187V15.1467H64.813V24.0693H73.7878V11.118C73.7878 8.37656 71.5698 6.1543 68.8338 6.1543H32.1663C29.4301 6.15449 27.2122 8.37676 27.2122 11.118Z" fill="#F7A32C"/>
<path d="M91.049 22.1162H9.95098C4.73965 22.1162 0.5 26.3561 0.5 31.5672V84.3871C0.5 89.6025 4.73652 93.8455 9.94395 93.8455H91.0563C96.2637 93.8455 100.5 89.6025 100.5 84.3871V31.5672C100.5 26.3561 96.2604 22.1162 91.049 22.1162ZM96.5938 84.3871C96.5938 87.4486 94.1096 89.9393 91.0561 89.9393H9.94395C6.89043 89.9393 4.40625 87.4486 4.40625 84.3871V59.7027C7.12012 62.6598 11.015 64.5162 15.3355 64.5162H21.0742C22.1529 64.5162 23.0273 63.6418 23.0273 62.5631C23.0273 61.4844 22.1529 60.61 21.0742 60.61H15.3355C9.30918 60.6102 4.40625 55.7072 4.40625 49.6809V31.5674C4.40625 28.51 6.89355 26.0227 9.95098 26.0227H91.049C94.1064 26.0227 96.5938 28.51 96.5938 31.5674V49.6809C96.5938 55.7074 91.6908 60.6102 85.6645 60.6102H78.8203C77.7416 60.6102 76.8672 61.4846 76.8672 62.5633C76.8672 63.642 77.7416 64.5164 78.8203 64.5164H85.6645C89.985 64.5164 93.8799 62.66 96.5938 59.7029V84.3871Z" fill="#22215B"/>
<path d="M71.9885 60.6101H29.2526C28.1739 60.6101 27.2994 61.4846 27.2994 62.5633C27.2994 63.642 28.1739 64.5164 29.2526 64.5164H71.9887C73.0674 64.5164 73.9418 63.642 73.9418 62.5633C73.9418 61.4846 73.0672 60.6101 71.9885 60.6101Z" fill="#22215B"/>
<path d="M73.667 32.5633H27.333C26.2543 32.5633 25.3799 33.4377 25.3799 34.5164C25.3799 35.5951 26.2543 36.4695 27.333 36.4695H73.6668C74.7455 36.4695 75.6199 35.5951 75.6199 34.5164C75.6201 33.4377 74.7457 32.5633 73.667 32.5633Z" fill="#22215B"/>
<path d="M69.7212 52.3266H81.6116V70.8469H69.7212V52.3266Z" fill="#F7A32C"/>
<path d="M19.3881 52.3266H31.2785V70.8469H19.3881V52.3266Z" fill="#F7A32C"/>
</g>
<defs>
<clipPath id="clip0">
<rect width="100" height="100" fill="white" transform="translate(0.5)"/>
</clipPath>
</defs>
</svg>
