<svg width="100" height="100" viewBox="0 0 100 100" fill="none" xmlns="http://www.w3.org/2000/svg">
<g clip-path="url(#clip0)">
<path d="M69.5305 38.1909L75.3598 32.3664C73.4566 30.4647 73.4566 27.3814 75.3598 25.4798L65.9791 16.1065C64.0759 18.0081 60.9903 18.0081 59.0871 16.1065L36.9849 38.1911H69.5305V38.1909Z" fill="#F7A32C"/>
<path d="M88.2011 77.5286V93.0584C88.2011 94.732 86.8378 96.0936 85.1618 96.0936H19.9745V40.1441H85.1618C86.8376 40.1441 88.2011 41.5057 88.2011 43.1794V58.7091H92.1075V43.1794C92.1075 39.8066 89.6881 36.988 86.4929 36.3657L89.7402 33.1209C90.8623 31.9997 91.4803 30.5087 91.4803 28.9229C91.4803 27.3371 90.8623 25.846 89.7402 24.7249L66.7319 1.73518C64.4164 -0.578557 60.6491 -0.578557 58.3337 1.73518L23.8037 36.2378H10.9317C7.10187 36.2378 3.98596 39.3517 3.98596 43.1794V93.0586C3.98596 96.8862 7.10168 100 10.9317 100H85.1618C88.9916 100 92.1075 96.8862 92.1075 93.0586V77.5288H88.2011V77.5286ZM61.0947 4.49854C61.8875 3.70633 63.1779 3.70633 63.9707 4.49854L86.979 27.4883C87.3626 27.8715 87.574 28.3811 87.574 28.9229C87.574 29.4647 87.3626 29.9743 86.979 30.3575L81.0943 36.2376H29.3305L61.0947 4.49854ZM16.0682 96.0936H10.9317C9.25584 96.0936 7.89233 94.732 7.89233 93.0584V43.1794C7.89233 41.5057 9.25584 40.1441 10.9317 40.1441H16.0682V96.0936Z" fill="#22215B"/>
<path d="M96.014 79.4818H73.3948C67.1192 79.4818 62.0317 74.3943 62.0317 68.1188C62.0317 61.8432 67.1192 56.7557 73.3948 56.7557H96.014V79.4818Z" fill="#F7A32C"/>
<path d="M74.6989 74.6088C71.1185 74.6088 68.2056 71.6974 68.2056 68.119C68.2056 64.5403 71.1185 61.6291 74.6989 61.6291C78.2795 61.6291 81.1925 64.5405 81.1925 68.119C81.1925 71.6974 78.2795 74.6088 74.6989 74.6088ZM74.6989 65.5353C73.2723 65.5353 72.1119 66.6943 72.1119 68.1188C72.1119 69.5434 73.2723 70.7022 74.6989 70.7022C76.1255 70.7022 77.2861 69.5432 77.2861 68.1188C77.2861 66.6943 76.1255 65.5353 74.6989 65.5353Z" fill="#22215B"/>
</g>
<defs>
<clipPath id="clip0">
<rect width="100" height="100" fill="white"/>
</clipPath>
</defs>
</svg>
