<svg width="24" height="24" viewBox="0 0 24 24" fill="none" xmlns="http://www.w3.org/2000/svg">
<path opacity="0.5" fill-rule="evenodd" clip-rule="evenodd" d="M5.35938 2.8118L6.09711 3.56592C7.66265 1.96553 9.78602 1.06643 12.0001 1.06643C14.2141 1.06643 16.3375 1.96553 17.903 3.56592L18.6408 2.8118C16.8796 1.01143 14.4908 0 12.0001 0C9.50932 0 7.12059 1.01143 5.35938 2.8118V2.8118Z" fill="#258AFF"/>
<path opacity="0.5" fill-rule="evenodd" clip-rule="evenodd" d="M11.9998 4.26563C10.6157 4.26377 9.28794 4.82597 8.31055 5.82775L9.04829 6.58188C9.83105 5.78168 10.8927 5.33213 11.9998 5.33213C13.1068 5.33213 14.1685 5.78168 14.9512 6.58188L15.689 5.82775C14.7116 4.82597 13.3839 4.26377 11.9998 4.26563V4.26563Z" fill="#258AFF"/>
<path fill-rule="evenodd" clip-rule="evenodd" d="M15.6521 19.1989V17.4501L14.4438 17.0378C14.3053 16.9904 14.1926 16.8858 14.1332 16.7494C14.0737 16.6131 14.0728 16.4575 14.1307 16.3205L15.6521 12.7312V11.7323C15.6454 9.60992 16.593 7.60211 18.2223 6.2866C19.8515 4.97109 21.9818 4.49378 24 4.99203V23.9988H19.826V21.3322H17.7391C16.5865 21.3322 15.6521 20.3771 15.6521 19.1989Z" fill="#258AFF"/>
<path fill-rule="evenodd" clip-rule="evenodd" d="M8.34783 19.2007V17.4519L9.55617 17.0396C9.69464 16.9922 9.80731 16.8876 9.8668 16.7512C9.9263 16.6149 9.92718 16.4593 9.86922 16.3223L8.34783 12.733V11.7341C8.34783 7.90492 5.31115 4.80078 1.56522 4.80078C1.03791 4.8028 0.512636 4.86759 0 4.99385V24.0006H4.17391V21.334H6.26087C7.41346 21.334 8.34783 20.3789 8.34783 19.2007Z" fill="#258AFF"/>
<path opacity="0.5" fill-rule="evenodd" clip-rule="evenodd" d="M12.0005 10.6665C12.5768 10.6665 13.044 10.189 13.044 9.59986C13.044 9.01076 12.5768 8.5332 12.0005 8.5332C11.4242 8.5332 10.957 9.01076 10.957 9.59986C10.957 10.189 11.4242 10.6665 12.0005 10.6665Z" fill="#258AFF"/>
</svg>
