<svg width="60" height="36" viewBox="0 0 60 36" fill="none" xmlns="http://www.w3.org/2000/svg">
<rect width="60" height="36" rx="8" fill="#EFF0F7"/>
<path opacity="0.5" fill-rule="evenodd" clip-rule="evenodd" d="M23.3594 8.8118L24.0971 9.56592C25.6626 7.96553 27.786 7.06643 30.0001 7.06643C32.2141 7.06643 34.3375 7.96553 35.903 9.56592L36.6408 8.8118C34.8796 7.01143 32.4908 6 30.0001 6C27.5093 6 25.1206 7.01143 23.3594 8.8118Z" fill="#A0A3BD"/>
<path opacity="0.5" fill-rule="evenodd" clip-rule="evenodd" d="M29.9998 10.2656C28.6157 10.2638 27.2879 10.826 26.3105 11.8278L27.0483 12.5819C27.8311 11.7817 28.8927 11.3321 29.9998 11.3321C31.1068 11.3321 32.1685 11.7817 32.9512 12.5819L33.689 11.8278C32.7116 10.826 31.3839 10.2638 29.9998 10.2656Z" fill="#A0A3BD"/>
<path fill-rule="evenodd" clip-rule="evenodd" d="M33.6521 25.1989V23.4501L32.4438 23.0378C32.3053 22.9904 32.1926 22.8858 32.1332 22.7494C32.0737 22.6131 32.0728 22.4575 32.1307 22.3205L33.6521 18.7312V17.7323C33.6454 15.6099 34.593 13.6021 36.2223 12.2866C37.8515 10.9711 39.9818 10.4938 42 10.992V29.9988H37.826V27.3322H35.7391C34.5865 27.3322 33.6521 26.3771 33.6521 25.1989Z" fill="#A0A3BD"/>
<path fill-rule="evenodd" clip-rule="evenodd" d="M26.3478 25.2007V23.4519L27.5562 23.0396C27.6946 22.9922 27.8073 22.8876 27.8668 22.7512C27.9263 22.6149 27.9272 22.4593 27.8692 22.3223L26.3478 18.733V17.7341C26.3478 13.9049 23.3111 10.8008 19.5652 10.8008C19.0379 10.8028 18.5126 10.8676 18 10.9938V30.0006H22.1739V27.334H24.2609C25.4135 27.334 26.3478 26.3789 26.3478 25.2007Z" fill="#A0A3BD"/>
<path opacity="0.5" fill-rule="evenodd" clip-rule="evenodd" d="M30 16.6665C30.5763 16.6665 31.0435 16.189 31.0435 15.5999C31.0435 15.0108 30.5763 14.5332 30 14.5332C29.4237 14.5332 28.9565 15.0108 28.9565 15.5999C28.9565 16.189 29.4237 16.6665 30 16.6665Z" fill="#A0A3BD"/>
</svg>
