<svg width="18" height="18" viewBox="0 0 18 18" fill="none" xmlns="http://www.w3.org/2000/svg">
<path d="M11.25 11.25C12.375 11.25 13.125 11.955 13.125 12.75H15.375V1.5H13.125C13.125 2.25 12.375 3 11.25 3C10.125 3 9.375 2.25 9.375 1.5H7.125V6.75" stroke="#FCFCFC" stroke-width="1.5" stroke-linecap="round" stroke-linejoin="round"/>
<path d="M11.25 16.5H9C9 15.705 8.25 15 7.125 15C6 15 5.25 15.705 5.25 16.5H3V5.25H5.25C5.25 6 6 6.75 7.125 6.75C8.25 6.75 9 6 9 5.25H11.25V16.5Z" stroke="#FCFCFC" stroke-width="1.5" stroke-linecap="round" stroke-linejoin="round"/>
<path d="M5.25 9.75C5.66421 9.75 6 9.41421 6 9C6 8.58579 5.66421 8.25 5.25 8.25C4.83579 8.25 4.5 8.58579 4.5 9C4.5 9.41421 4.83579 9.75 5.25 9.75Z" fill="#FCFCFC"/>
<path d="M7.125 9.75C7.53921 9.75 7.875 9.41421 7.875 9C7.875 8.58579 7.53921 8.25 7.125 8.25C6.71079 8.25 6.375 8.58579 6.375 9C6.375 9.41421 6.71079 9.75 7.125 9.75Z" fill="#FCFCFC"/>
<path d="M9 9.75C9.41421 9.75 9.75 9.41421 9.75 9C9.75 8.58579 9.41421 8.25 9 8.25C8.58579 8.25 8.25 8.58579 8.25 9C8.25 9.41421 8.58579 9.75 9 9.75Z" fill="#FCFCFC"/>
</svg>
