<svg width="16" height="20" viewBox="0 0 16 20" fill="none" xmlns="http://www.w3.org/2000/svg">
<path d="M13.3592 10.6255C13.3369 8.09651 15.3892 6.88237 15.482 6.82318C14.3271 5.104 12.5298 4.86848 11.8887 4.84077C10.36 4.68334 8.90433 5.7564 8.12946 5.7564C7.3546 5.7564 6.15641 4.86344 4.8889 4.88863C3.22035 4.91382 1.68424 5.8748 0.825208 7.39372C-0.906474 10.4505 0.383315 14.9808 2.0692 17.4619C2.89481 18.6748 3.87762 20.0413 5.16988 19.991C6.41511 19.9406 6.88548 19.1723 8.38816 19.1723C9.89085 19.1723 10.3142 19.991 11.63 19.967C12.968 19.9406 13.8172 18.7277 14.6366 17.5111C15.5823 16.103 15.9734 14.7402 15.9957 14.6684C15.966 14.6558 13.3864 13.6495 13.3592 10.6255Z" fill="#22215B"/>
<path d="M10.8872 3.19941C11.5729 2.3543 12.0359 1.1792 11.9083 0.00793457C10.9205 0.0482813 9.72486 0.677987 9.01558 1.52309C8.38061 2.26999 7.8236 3.46646 7.97455 4.61388C9.07623 4.70078 10.2013 4.04327 10.8872 3.19941Z" fill="#22215B"/>
</svg>
