<svg width="74" height="20" viewBox="0 0 74 20" fill="none" xmlns="http://www.w3.org/2000/svg">
<path d="M9.47207 15.8099L9.41933 15.8608C8.56916 16.7253 7.58515 17.1835 6.57121 17.1835C4.45476 17.1835 2.91843 15.5988 2.91843 13.4122C2.91843 11.2295 4.45476 9.64255 6.57121 9.64255C7.58515 9.64255 8.56916 10.1026 9.41933 10.9695L9.47207 11.0219L10.8332 9.3792L10.7968 9.33464C9.66485 7.99952 8.30665 7.34956 6.63691 7.34956C4.96139 7.34956 3.42975 7.91238 2.3259 8.92739C1.12653 10.0265 0.493286 11.5767 0.493286 13.4122C0.493286 15.2468 1.12653 16.8008 2.3259 17.9002C3.42975 18.9199 4.96139 19.4796 6.63691 19.4796C8.30665 19.4796 9.66485 18.83 10.7968 17.4944L10.8332 17.4529L9.47207 15.8099Z" fill="#22215B"/>
<path d="M12.2086 19.2561H14.6132V7.53998H12.2086V19.2561Z" fill="#22215B"/>
<path d="M24.0321 16.7085C23.3906 17.0983 22.7936 17.2943 22.2574 17.2943C21.4806 17.2943 21.1295 16.8851 21.1295 15.9735V9.75688H23.5784V7.5506H21.1295V3.90507L18.7727 5.16399V7.5506H16.7395V9.75688H18.7727V16.3701C18.7727 18.1718 19.842 19.4027 21.4382 19.4347C22.522 19.4559 23.1754 19.1336 23.5722 18.898L23.5954 18.8808L24.1744 16.6217L24.0321 16.7085Z" fill="#22215B"/>
<path d="M26.0236 19.2561H28.4297V7.53998H26.0236V19.2561Z" fill="#22215B"/>
<path d="M66.7803 3.08204V14.258L67.5293 13.0943C67.5287 13.0994 70.8946 8.23465 71.3259 7.61433H72.826C72.5067 8.04253 69.8603 11.6777 69.8603 11.6777C69.8603 11.6777 73.3075 18.8476 73.5067 19.2561H72.0336C71.9526 19.0888 68.9912 12.8313 68.9912 12.8313L66.7803 15.9233V19.2561H65.4079V3.8643C65.5279 3.7955 66.4572 3.26378 66.7803 3.08204ZM55.5066 9.00228C56.2145 7.94598 57.3236 7.36356 58.6213 7.36356C61.2089 7.36356 62.5802 9.01072 62.5802 12.1277V19.2561H61.2043V12.4228C61.2043 9.771 60.2818 8.54001 58.2833 8.54001C56.3705 8.54001 55.2284 9.99214 55.2284 12.4228V19.2561H53.8565V7.61433H55.2284V9.41967L55.5066 9.00228ZM47.0716 7.36356C49.7343 7.36356 51.0287 8.57887 51.0287 11.0796V19.2561H49.6561V17.5576L49.3891 17.8515C48.3791 18.9638 47.2197 19.5077 45.8392 19.5077C44.7575 19.5077 42.2407 19.1504 42.2407 15.8362C42.2407 13.1272 44.4811 12.1657 46.5799 12.1657C47.6337 12.1657 48.6748 12.4079 49.4303 12.8305L49.6561 12.9554V11.2841C49.6561 9.43108 48.7495 8.49265 46.9577 8.49265C45.8529 8.49265 44.8557 8.77099 43.8332 9.3462C43.743 9.13932 43.4259 8.43946 43.3376 8.23981C44.4062 7.67766 45.7258 7.36356 47.0716 7.36356ZM43.5864 15.7221C43.5864 17.4624 44.4899 18.4215 46.1312 18.4215C47.5282 18.4215 48.7689 17.7627 49.6303 16.5648L49.6561 16.5236V13.9713L49.5799 13.9272C48.7039 13.4287 47.8067 13.2277 46.488 13.2277C44.6727 13.2277 43.5864 14.1599 43.5864 15.7221ZM32.9891 3.08204V9.3097L33.2548 9.01934C34.2655 7.90506 35.3844 7.36356 36.6707 7.36356C39.2448 7.36356 40.7223 9.50504 40.7223 13.2399C40.7223 17.0472 39.0442 19.5077 36.4461 19.5077C35.1802 19.5077 34.1666 19.0175 33.2562 17.9667L32.9891 17.6564V19.2561H31.6195V3.8643C31.7361 3.7955 32.6672 3.26378 32.9891 3.08204ZM33.0217 10.324L32.9891 10.367V16.4271L33.0136 16.4643C33.7707 17.6336 35.004 18.3328 36.3166 18.3328C38.3437 18.3328 39.3713 16.6274 39.3713 13.2647C39.3713 10.2607 38.2328 8.54001 36.248 8.54001C35.0448 8.54001 33.9593 9.13999 33.0217 10.324Z" fill="#22215B"/>
<path fill-rule="evenodd" clip-rule="evenodd" d="M29.87 5.46109C27.6689 2.34918 24.0134 0.492528 20.2943 0.492528C16.5766 0.492528 12.9204 2.34918 10.723 5.46109L10.6102 5.62122H13.3818L13.4125 5.588C15.2989 3.64471 17.7613 2.61701 20.2943 2.61701C22.8275 2.61701 25.2895 3.64471 27.1795 5.588L27.2102 5.62122H29.9809L29.87 5.46109Z" fill="#22215B"/>
</svg>
