<svg width="103" height="20" viewBox="0 0 103 20" fill="none" xmlns="http://www.w3.org/2000/svg">
<path d="M6.57004 19.6419H2.69278V9.98513H0.0515137V6.84108H2.69268V4.60386C2.69268 1.95275 3.86087 0.0513916 7.72764 0.0513916C8.54546 0.0513916 9.82941 0.216084 9.82941 0.216084V3.13551H8.48084C7.10676 3.13551 6.57025 3.5531 6.57025 4.70759V6.84108H9.77796L9.49232 9.98513H6.57015L6.57004 19.6419ZM15.4665 6.58983C15.41 6.58983 15.3519 6.59188 15.2944 6.59332C11.6992 6.59332 10.0542 9.29522 10.0542 13.1306C10.0542 17.9622 12.1879 19.896 15.3225 19.896C17.1159 19.896 18.2941 19.1418 19.0103 17.7344V19.6433H22.6981V6.84242H19.0103V8.81101C18.4255 7.54447 17.2143 6.60484 15.4665 6.58983ZM16.4042 9.61463C17.9142 9.61463 18.8206 10.6669 18.8206 12.4569L18.8241 14.285C18.8241 15.4914 18.0755 16.9028 16.4042 16.9028C13.8349 16.9028 13.9035 14.131 13.9035 13.2078C13.9035 10.1024 15.2725 9.61463 16.4042 9.61463ZM24.1875 13.2435C24.1875 11.688 24.113 6.59815 30.7502 6.59815C33.4146 6.59815 34.5271 7.44454 34.5271 7.44454L33.6329 10.2154C33.6329 10.2154 32.5218 9.60414 31.0741 9.60414C29.2198 9.60414 28.0365 10.6781 28.0365 12.5678L28.0386 13.9227C28.0386 15.7385 29.1802 16.9505 31.0779 16.9505C32.3968 16.9505 33.6124 16.3335 33.6124 16.3335L34.5043 19.0465C34.5043 19.0465 33.4871 19.8982 30.7689 19.8982C24.4491 19.8982 24.1876 15.3317 24.1876 13.2435H24.1875ZM56.1502 6.59332C59.7455 6.59332 61.4164 9.29522 61.4164 13.1306C61.4164 17.9622 59.2826 19.896 56.148 19.896C54.3546 19.896 53.0289 19.1419 52.3127 17.7344V19.6433L48.6713 19.6418V0.440607L52.5376 0.103719V8.63758C53.0956 7.14456 54.9294 6.59332 56.1503 6.59332H56.1502ZM55.0663 9.61463C53.5563 9.61463 52.5376 10.6669 52.5376 12.4569L52.534 14.285C52.5317 15.4914 53.2394 16.9028 55.0663 16.9028C57.6356 16.9028 57.567 14.131 57.567 13.2078C57.567 10.1024 56.1981 9.61463 55.0663 9.61463ZM41.2354 6.60391C37.1575 6.60391 35.0047 8.8252 35.0047 12.7727V13.5061C35.0047 18.6295 38.028 19.9486 41.6322 19.9486C45.1356 19.9486 46.7213 18.9696 46.7213 18.9696L45.9978 16.3625C45.9978 16.3625 44.1325 17.1554 42.0958 17.1554C39.9843 17.1554 39.0763 16.6177 38.8435 14.5904H47.0304V12.4989C47.0304 8.21691 44.6143 6.60381 41.2353 6.60381L41.2354 6.60391ZM41.3336 9.21452C42.7452 9.21452 43.6598 10.0793 43.6096 12.0849H38.8506C38.9331 9.97403 39.9195 9.21462 41.3336 9.21462V9.21452ZM69.1255 6.58633C64.9379 6.58633 62.7333 8.94404 62.7333 13.1692C62.7333 18.9663 66.5335 19.8994 69.1325 19.8994C72.9372 19.8994 75.4685 17.8529 75.4685 13.2218C75.4685 8.40164 72.6224 6.58633 69.1255 6.58633ZM69.0728 9.62511C70.9142 9.62511 71.6438 11.002 71.6438 12.5692V13.9167C71.6438 15.8153 70.6229 16.9134 69.0658 16.9134C67.6096 16.9134 66.5862 15.8862 66.5862 13.9167V12.5692C66.5862 10.4687 67.804 9.62511 69.0728 9.62511ZM83.1708 6.58633C78.9832 6.58633 76.7786 8.94404 76.7786 13.1692C76.7786 18.9663 80.5788 19.8994 83.1777 19.8994C86.9824 19.8994 89.5137 17.8529 89.5137 13.2218C89.5137 8.40164 86.6675 6.58633 83.1708 6.58633ZM83.1181 9.62511C84.9594 9.62511 85.689 11.002 85.689 12.5692V13.9167C85.689 15.8153 84.668 16.9134 83.1111 16.9134C81.6549 16.9134 80.6315 15.8862 80.6315 13.9167V12.5692C80.6315 10.4687 81.8493 9.62511 83.1181 9.62511ZM90.9748 19.6419V0.440607L94.8522 0.103719V12.9736L98.6992 6.84108H102.794L98.7811 13.1926L102.949 19.6419H98.8421L94.8522 13.3797V19.6419H90.9748Z" fill="#22215B"/>
</svg>
