<svg width="60" height="20" viewBox="0 0 60 20" fill="none" xmlns="http://www.w3.org/2000/svg">
<path d="M58.2279 11.9592L59.8941 13.061C59.3533 13.851 58.0599 15.2064 55.8237 15.2064C53.0468 15.2064 50.9788 13.0755 50.9788 10.3646C50.9788 7.47984 53.0687 5.52283 55.5899 5.52283C58.1256 5.52283 59.3679 7.52333 59.7698 8.60332L59.9891 9.15418L53.456 11.836C53.953 12.8073 54.7276 13.3002 55.8237 13.3002C56.9199 13.3002 57.6799 12.7638 58.2279 11.9592ZM53.1053 10.2124L57.4679 8.41486C57.2268 7.81326 56.5106 7.38562 55.6556 7.38562C54.5668 7.38562 53.0541 8.34238 53.1053 10.2124Z" fill="#22215B"/>
<path d="M47.8292 0.586792H49.9338V14.7643H47.8292V0.586792Z" fill="#22215B"/>
<path d="M44.5116 5.89978H46.5431V14.5107C46.5431 18.084 44.4166 19.5554 41.9027 19.5554C39.5351 19.5554 38.1101 17.9753 37.5766 16.6924L39.4401 15.9241C39.7762 16.7141 40.5874 17.6491 41.9027 17.6491C43.5177 17.6491 44.5116 16.6561 44.5116 14.8006V14.1048H44.4385C43.9562 14.6846 43.0354 15.2065 41.8662 15.2065C39.4255 15.2065 37.1893 13.0973 37.1893 10.3792C37.1893 7.6466 39.4255 5.51562 41.8662 5.51562C43.0281 5.51562 43.9562 6.03025 44.4385 6.59561H44.5116V5.89978ZM44.6577 10.3792C44.6577 8.6686 43.5104 7.42191 42.0489 7.42191C40.5728 7.42191 39.3305 8.6686 39.3305 10.3792C39.3305 12.068 40.5728 13.293 42.0489 13.293C43.5104 13.3002 44.6577 12.068 44.6577 10.3792Z" fill="#22215B"/>
<path d="M25.6359 10.343C25.6359 13.1335 23.4436 15.1848 20.7544 15.1848C18.0652 15.1848 15.8729 13.1263 15.8729 10.343C15.8729 7.53789 18.0652 5.4939 20.7544 5.4939C23.4436 5.4939 25.6359 7.53789 25.6359 10.343ZM23.5021 10.343C23.5021 8.60338 22.2306 7.40743 20.7544 7.40743C19.2783 7.40743 18.0068 8.60338 18.0068 10.343C18.0068 12.068 19.2783 13.2785 20.7544 13.2785C22.2306 13.2785 23.5021 12.068 23.5021 10.343Z" fill="#22215B"/>
<path d="M36.2977 10.3646C36.2977 13.1552 34.1054 15.2064 31.4162 15.2064C28.727 15.2064 26.5347 13.1552 26.5347 10.3646C26.5347 7.55958 28.727 5.52283 31.4162 5.52283C34.1054 5.52283 36.2977 7.55233 36.2977 10.3646ZM34.1565 10.3646C34.1565 8.62506 32.885 7.42911 31.4089 7.42911C29.9327 7.42911 28.6612 8.62506 28.6612 10.3646C28.6612 12.0897 29.9327 13.3002 31.4089 13.3002C32.8923 13.3002 34.1565 12.0825 34.1565 10.3646Z" fill="#22215B"/>
<path d="M7.84916 13.0828C4.78727 13.0828 2.39036 10.6329 2.39036 7.59585C2.39036 4.55885 4.78727 2.10895 7.84916 2.10895C9.50068 2.10895 10.7064 2.75405 11.598 3.58034L13.0668 2.12345C11.8245 0.941992 10.1657 0.0432129 7.84916 0.0432129C3.65458 0.0432129 0.125 3.43538 0.125 7.59585C0.125 11.7563 3.65458 15.1485 7.84916 15.1485C10.1145 15.1485 11.8245 14.4092 13.1618 13.032C14.5356 11.6693 14.9595 9.75582 14.9595 8.2047C14.9595 7.71907 14.901 7.21895 14.8353 6.84929H7.84916V8.86429H12.8257C12.6795 10.1255 12.2776 10.988 11.6857 11.5751C10.9695 12.2927 9.83684 13.0828 7.84916 13.0828Z" fill="#22215B"/>
</svg>
