<svg width="94" height="20" viewBox="0 0 94 20" fill="none" xmlns="http://www.w3.org/2000/svg">
<path d="M33.1802 11.5194L32.6199 13.1008H32.5732C32.4799 12.7442 32.3087 12.2016 32.0285 11.5504L29.0249 4.03106H26.0835V16.0156H28.0289V8.62021C28.0289 8.15509 28.0289 7.62796 28.0133 6.9768C27.9977 6.65122 27.9666 6.40315 27.951 6.21711H27.9977C28.0911 6.68222 28.2001 7.02331 28.2779 7.24036L31.8885 15.9846H33.258L36.8375 7.16285C36.9153 6.96129 36.9931 6.55819 37.0709 6.21711H37.1176C37.0709 7.10083 37.0398 7.89153 37.0242 8.37215V15.969H39.0941V4.00005H36.2616L33.1802 11.5194ZM41.055 7.3799H43.0782V15.969H41.055V7.3799ZM42.0822 3.75199C41.7398 3.75199 41.4597 3.87602 41.2262 4.09308C40.9928 4.31013 40.8683 4.5892 40.8683 4.93029C40.8683 5.25587 40.9928 5.53494 41.2262 5.75199C41.4597 5.96905 41.7398 6.07757 42.0822 6.07757C42.4246 6.07757 42.7203 5.95354 42.9381 5.75199C43.1716 5.53494 43.2961 5.25587 43.2961 4.93029C43.2961 4.60471 43.1716 4.32564 42.9381 4.09308C42.7358 3.87602 42.4401 3.75199 42.0822 3.75199ZM50.2527 7.30238C49.8792 7.22486 49.4901 7.17835 49.1166 7.17835C48.1984 7.17835 47.358 7.3799 46.6577 7.783C45.9573 8.1861 45.3971 8.74424 45.0391 9.44192C44.6656 10.1551 44.4789 10.9768 44.4789 11.9225C44.4789 12.7442 44.6656 13.4729 45.0236 14.1396C45.3815 14.7908 45.8795 15.3179 46.5487 15.6745C47.1868 16.0311 47.9338 16.2171 48.7742 16.2171C49.7391 16.2171 50.564 16.0156 51.2176 15.6435L51.2332 15.628V13.7675L51.1554 13.8295C50.8597 14.0466 50.5173 14.2326 50.1749 14.3411C49.8169 14.4652 49.4901 14.5272 49.21 14.5272C48.4007 14.5272 47.7626 14.2946 47.3113 13.783C46.8444 13.2869 46.611 12.6047 46.611 11.752C46.611 10.8683 46.8444 10.1706 47.3269 9.65897C47.8093 9.14734 48.4474 8.88377 49.2256 8.88377C49.8792 8.88377 50.5484 9.10083 51.1554 9.53494L51.2332 9.59695V7.62796L51.2176 7.61246C50.953 7.50393 50.6573 7.3799 50.2527 7.30238ZM56.9292 7.24036C56.4312 7.24036 55.9643 7.3954 55.5597 7.72098C55.2173 8.00005 54.9838 8.40315 54.7815 8.88377H54.766V7.3799H52.7428V15.969H54.766V11.5814C54.766 10.8373 54.9216 10.2171 55.264 9.7675C55.6063 9.30238 56.0421 9.06982 56.5713 9.06982C56.758 9.06982 56.9448 9.11633 57.1782 9.14734C57.3961 9.20936 57.5517 9.27137 57.6607 9.34889L57.7385 9.41091V7.3954L57.6918 7.3799C57.5517 7.28688 57.2716 7.24036 56.9292 7.24036ZM62.4385 7.19385C61.0222 7.19385 59.8862 7.61246 59.0924 8.43416C58.2832 9.25587 57.8941 10.3877 57.8941 11.814C57.8941 13.1473 58.2987 14.2326 59.0769 15.0233C59.855 15.7985 60.9133 16.2016 62.2362 16.2016C63.6213 16.2016 64.7262 15.783 65.5199 14.9458C66.3292 14.1086 66.7183 12.9923 66.7183 11.6125C66.7183 10.2481 66.3448 9.16285 65.5822 8.37215C64.8507 7.58145 63.7769 7.19385 62.4385 7.19385ZM64.057 13.7985C63.6835 14.2791 63.0921 14.5117 62.3607 14.5117C61.6292 14.5117 61.0378 14.2791 60.6176 13.7675C60.1974 13.2869 59.9951 12.5892 59.9951 11.7055C59.9951 10.7908 60.213 10.0931 60.6176 9.59695C61.0378 9.10083 61.6136 8.85277 62.3451 8.85277C63.061 8.85277 63.6213 9.08533 64.0259 9.56595C64.4305 10.0466 64.6484 10.7442 64.6484 11.659C64.6173 12.5892 64.4461 13.3179 64.057 13.7985ZM71.2315 10.9458C70.5934 10.6822 70.1888 10.4807 70.002 10.3101C69.8464 10.1551 69.7686 9.93804 69.7686 9.65897C69.7686 9.42641 69.862 9.19385 70.0954 9.03881C70.3289 8.88377 70.5934 8.80626 70.9825 8.80626C71.3249 8.80626 71.6828 8.86827 72.0252 8.96129C72.3676 9.05432 72.6789 9.19385 72.9279 9.3799L73.0057 9.44192V7.55044L72.959 7.53494C72.7256 7.44191 72.4143 7.34889 72.0408 7.27137C71.6673 7.20936 71.3249 7.17835 71.0448 7.17835C70.0799 7.17835 69.2862 7.41091 68.6636 7.92253C68.0411 8.40315 67.7454 9.05432 67.7454 9.81401C67.7454 10.2171 67.8077 10.5737 67.9477 10.8683C68.0878 11.1628 68.2901 11.4419 68.5703 11.6745C68.8504 11.8915 69.255 12.1396 69.8153 12.3721C70.2822 12.5737 70.6401 12.7287 70.858 12.8528C71.0759 12.9768 71.216 13.1163 71.3249 13.2249C71.4027 13.3489 71.4494 13.5039 71.4494 13.7055C71.4494 14.2791 71.0136 14.5582 70.1266 14.5582C69.7842 14.5582 69.4262 14.4962 69.006 14.3566C68.5858 14.2171 68.1968 14.0156 67.8699 13.783L67.7921 13.721V15.69L67.8388 15.7055C68.1345 15.845 68.4924 15.938 68.9282 16.0466C69.364 16.1241 69.753 16.1861 70.0954 16.1861C71.1381 16.1861 71.9941 15.9535 72.6011 15.4419C73.2236 14.9458 73.5504 14.3101 73.5504 13.4884C73.5504 12.9148 73.3948 12.4032 73.0524 12.0156C72.6011 11.6435 72.0408 11.2559 71.2315 10.9458ZM78.8885 7.19385C77.4722 7.19385 76.3362 7.61246 75.5424 8.43416C74.7487 9.25587 74.3441 10.3877 74.3441 11.814C74.3441 13.1473 74.7487 14.2326 75.5269 15.0233C76.305 15.7985 77.3633 16.2016 78.6862 16.2016C80.0713 16.2016 81.1762 15.783 81.9699 14.9458C82.7792 14.1086 83.1683 12.9923 83.1683 11.6125C83.1683 10.2481 82.7948 9.16285 82.0322 8.37215C81.3007 7.58145 80.2269 7.19385 78.8885 7.19385ZM80.4915 13.7985C80.1179 14.2791 79.5266 14.5117 78.7951 14.5117C78.0481 14.5117 77.4722 14.2791 77.0521 13.7675C76.6319 13.2869 76.4295 12.5892 76.4295 11.7055C76.4295 10.7908 76.6474 10.0931 77.0521 9.59695C77.4722 9.10083 78.0481 8.85277 78.7795 8.85277C79.4799 8.85277 80.0557 9.08533 80.4603 9.56595C80.865 10.0466 81.0828 10.7442 81.0828 11.659C81.0828 12.5892 80.8805 13.3179 80.4915 13.7985ZM93.9845 9.03881V7.3799H91.9458V4.83726L91.8835 4.85277L89.9537 5.42641L89.907 5.44191V7.3799H86.8567V6.29463C86.8567 5.7985 86.9812 5.41091 87.1991 5.16284C87.417 4.91478 87.7438 4.79075 88.1484 4.79075C88.4285 4.79075 88.7242 4.85277 89.0511 4.9923L89.1289 5.03881V3.28688L89.0822 3.27137C88.8021 3.17835 88.4285 3.11633 87.9461 3.11633C87.3391 3.11633 86.81 3.25587 86.3275 3.48843C85.8451 3.75199 85.4871 4.10858 85.2226 4.5892C84.958 5.05432 84.8179 5.58145 84.8179 6.1861V7.3799H83.4017V9.02331H84.8179V15.969H86.8567V9.03881H89.907V13.4574C89.907 15.2714 90.763 16.1861 92.4749 16.1861C92.755 16.1861 93.0507 16.1396 93.3309 16.0931C93.6266 16.0311 93.8444 15.9535 93.9689 15.8915L93.9845 15.876V14.2171L93.9067 14.2791C93.7822 14.3566 93.6732 14.4187 93.4865 14.4652C93.3309 14.5117 93.1908 14.5272 93.0818 14.5272C92.6772 14.5272 92.3971 14.4342 92.1948 14.2016C92.008 13.9846 91.9146 13.628 91.9146 13.1008V9.03881H93.9845Z" fill="#22215B"/>
<path d="M0 0H9.54007V9.50388H0V0Z" fill="#22215B"/>
<path d="M10.536 0H20.0761V9.50388H10.536V0Z" fill="#22215B"/>
<path d="M0 10.4961H9.54007V20H0V10.4961Z" fill="#22215B"/>
<path d="M10.536 10.4961H20.0761V20H10.536V10.4961Z" fill="#22215B"/>
</svg>
