<svg width="25" height="20" viewBox="0 0 25 20" fill="none" xmlns="http://www.w3.org/2000/svg">
<g clip-path="url(#clip0)">
<path d="M7.95787 20.0812C17.4069 20.0812 22.5742 12.3874 22.5742 5.71563C22.5742 5.4971 22.5697 5.27956 22.5597 5.063C23.5628 4.35032 24.4346 3.46096 25.1222 2.44853C24.2017 2.85064 23.2112 3.12134 22.1721 3.2434C23.2327 2.61833 24.047 1.62955 24.4311 0.450804C23.4386 1.02912 22.3394 1.44944 21.1691 1.67637C20.2317 0.694993 18.8971 0.0811768 17.4193 0.0811768C14.5824 0.0811768 12.2819 2.34229 12.2819 5.12944C12.2819 5.52564 12.327 5.91102 12.4151 6.28068C8.14555 6.06953 4.35964 4.06044 1.82589 1.00549C1.38471 1.75163 1.13032 2.61836 1.13032 3.54317C1.13032 5.29484 2.03725 6.84123 3.41637 7.74589C2.57356 7.7203 1.78182 7.4929 1.08982 7.11442C1.08907 7.1356 1.08906 7.15626 1.08906 7.1789C1.08906 9.62408 2.85982 11.6656 5.2104 12.1282C4.77873 12.2439 4.32456 12.3059 3.8558 12.3059C3.5253 12.3059 3.20329 12.2739 2.89031 12.2148C3.54432 14.221 5.44078 15.6808 7.68919 15.7216C5.93096 17.0761 3.71608 17.8828 1.30887 17.8828C0.894726 17.8828 0.485597 17.8596 0.0834961 17.8129C2.35703 19.2452 5.05664 20.0809 7.95815 20.0809" fill="#22215B"/>
</g>
<defs>
<clipPath id="clip0">
<rect width="25" height="20" fill="white"/>
</clipPath>
</defs>
</svg>
