<svg width="108" height="91" viewBox="0 0 108 91" fill="none" xmlns="http://www.w3.org/2000/svg">
<path d="M47.0054 63.6875L73.5054 63.6875C88.1409 63.6875 100.005 51.823 100.005 37.1875L100.005 10.6875" stroke="#2E186A" stroke-width="6.625" stroke-linecap="round" stroke-linejoin="round" stroke-dasharray="9.94 13.25"/>
<path fill-rule="evenodd" clip-rule="evenodd" d="M31.2881 79.2798C32.5817 80.5734 34.6791 80.5734 35.9727 79.2798C37.2663 77.9862 37.2663 75.8888 35.9727 74.5952L28.3775 67L30.3179 67C32.1473 67 33.6304 65.5169 33.6304 63.6875C33.6304 61.8581 32.1473 60.375 30.3179 60.375L28.3775 60.375L35.9727 52.7798C37.2663 51.4862 37.2663 49.3888 35.9727 48.0952C34.679 46.8016 32.5817 46.8016 31.2881 48.0952L19.2092 60.1741C17.2688 62.1145 17.2688 65.2605 19.2092 67.2009L31.2881 79.2798Z" fill="#2E186A"/>
</svg>
