<svg width="339" height="93" viewBox="0 0 339 93" fill="none" xmlns="http://www.w3.org/2000/svg">
<path d="M4.00537 58.1851V58.1851C93.8663 20.754 194.476 18.276 286.07 51.2379L305.375 58.1851" stroke="#2E186A" stroke-width="6.63" stroke-linecap="round" stroke-linejoin="round" stroke-dasharray="9.94 13.25"/>
<path fill-rule="evenodd" clip-rule="evenodd" d="M305.579 41.89C304.815 40.2281 302.847 39.5009 301.185 40.2657C299.524 41.0305 298.796 42.9978 299.561 44.6597L304.052 54.4172L302.232 53.7444C300.516 53.1101 298.61 53.9869 297.976 55.7029C297.342 57.4188 298.219 59.3241 299.935 59.9584L301.755 60.6312L291.997 65.1218C290.335 65.8866 289.608 67.8539 290.373 69.5158C291.138 71.1777 293.105 71.9049 294.767 71.1401L310.284 63.9986C312.777 62.8513 313.868 59.9005 312.721 57.4076L305.579 41.89Z" fill="#2E186A"/>
</svg>
