<svg width="241" height="48" viewBox="0 0 241 48" fill="none" xmlns="http://www.w3.org/2000/svg">
<circle cx="24.1906" cy="24.1906" r="21.5961" stroke="#F7A02C" stroke-width="4.31922"/>
<mask id="mask0" mask-type="alpha" maskUnits="userSpaceOnUse" x="0" y="0" width="33" height="40">
<path d="M17.7087 0L32.671 8.63844L14.9622 39.311L-5.72205e-05 30.6725L17.7087 0Z" fill="#C4C4C4"/>
</mask>
<g mask="url(#mask0)">
<path fill-rule="evenodd" clip-rule="evenodd" d="M17.4958 35.7864C23.9 39.4838 32.0889 37.2896 35.7863 30.8855C39.4838 24.4813 37.2895 16.2924 30.8854 12.595C24.4813 8.89752 16.2923 11.0917 12.5949 17.4959C8.89746 23.9 11.0917 32.089 17.4958 35.7864ZM15.3362 39.5269C23.8062 44.4171 34.6367 41.5151 39.5269 33.0451C44.417 24.5751 41.515 13.7445 33.045 8.8544C24.575 3.96425 13.7445 6.86628 8.85434 15.3363C3.96419 23.8063 6.86622 34.6368 15.3362 39.5269Z" fill="#F7A02C"/>
<path fill-rule="evenodd" clip-rule="evenodd" d="M20.5193 30.5496C24.0313 32.5773 28.522 31.374 30.5496 27.862C32.5772 24.3501 31.3739 19.8594 27.862 17.8318C24.3501 15.8041 19.8593 17.0074 17.8317 20.5194C15.8041 24.0313 17.0074 28.522 20.5193 30.5496ZM18.3597 34.2902C23.9375 37.5105 31.0698 35.5994 34.2902 30.0216C37.5105 24.4438 35.5994 17.3115 30.0216 14.0912C24.4438 10.8709 17.3115 12.782 14.0912 18.3597C10.8708 23.9375 12.7819 31.0698 18.3597 34.2902Z" fill="#F7A02C"/>
</g>
<circle cx="31.5911" cy="10.5087" r="2.15961" transform="rotate(30 31.5911 10.5087)" fill="#F7A02C"/>
<circle cx="28.5677" cy="15.7455" r="2.15961" transform="rotate(30 28.5677 15.7455)" fill="#F7A02C"/>
<circle cx="19.0654" cy="32.2039" r="2.15961" transform="rotate(30 19.0654 32.2039)" fill="#F7A02C"/>
<circle cx="16.0419" cy="37.4407" r="2.15961" transform="rotate(30 16.0419 37.4407)" fill="#F7A02C"/>
<path d="M67.4012 38.6361C64.0173 38.6361 61.1873 37.4981 58.9114 35.2222C56.6654 32.9462 55.5424 30.1313 55.5424 26.7772C55.5424 23.4232 56.6654 20.6082 58.9114 18.3323C61.1873 16.0564 64.0173 14.9184 67.4012 14.9184C69.5873 14.9184 71.5788 15.4425 73.3756 16.4906C75.1724 17.5387 76.5349 18.9462 77.4633 20.713L72.4772 23.6328C72.028 22.7045 71.3392 21.9708 70.4109 21.4318C69.5125 20.8927 68.4943 20.6232 67.3563 20.6232C65.6194 20.6232 64.182 21.2072 63.044 22.3751C61.906 23.5131 61.337 24.9804 61.337 26.7772C61.337 28.5441 61.906 30.0115 63.044 31.1794C64.182 32.3174 65.6194 32.8863 67.3563 32.8863C68.5242 32.8863 69.5574 32.6318 70.4558 32.1227C71.3841 31.5837 72.0729 30.85 72.5221 29.9216L77.5531 32.7965C76.5649 34.5633 75.1724 35.9858 73.3756 37.0639C71.5788 38.112 69.5873 38.6361 67.4012 38.6361ZM97.1568 35.2222C94.8509 37.4981 92.0359 38.6361 88.7119 38.6361C85.3878 38.6361 82.5728 37.4981 80.2669 35.2222C77.991 32.9163 76.853 30.1013 76.853 26.7772C76.853 23.4532 77.991 20.6532 80.2669 18.3772C82.5728 16.0713 85.3878 14.9184 88.7119 14.9184C92.0359 14.9184 94.8509 16.0713 97.1568 18.3772C99.4627 20.6532 100.616 23.4532 100.616 26.7772C100.616 30.1013 99.4627 32.9163 97.1568 35.2222ZM84.3546 31.2243C85.5225 32.3922 86.9749 32.9762 88.7119 32.9762C90.4488 32.9762 91.9012 32.3922 93.0691 31.2243C94.237 30.0564 94.821 28.574 94.821 26.7772C94.821 24.9804 94.237 23.4981 93.0691 22.3302C91.9012 21.1622 90.4488 20.5783 88.7119 20.5783C86.9749 20.5783 85.5225 21.1622 84.3546 22.3302C83.2167 23.4981 82.6477 24.9804 82.6477 26.7772C82.6477 28.574 83.2167 30.0564 84.3546 31.2243ZM119.516 15.5473H125.31V38.0072H119.516V35.3569C117.779 37.543 115.338 38.6361 112.194 38.6361C109.199 38.6361 106.624 37.4981 104.467 35.2222C102.341 32.9163 101.278 30.1013 101.278 26.7772C101.278 23.4532 102.341 20.6532 104.467 18.3772C106.624 16.0713 109.199 14.9184 112.194 14.9184C115.338 14.9184 117.779 16.0114 119.516 18.1975V15.5473ZM108.825 31.3591C109.993 32.527 111.475 33.1109 113.272 33.1109C115.069 33.1109 116.551 32.527 117.719 31.3591C118.917 30.1612 119.516 28.6339 119.516 26.7772C119.516 24.9205 118.917 23.4082 117.719 22.2403C116.551 21.0425 115.069 20.4435 113.272 20.4435C111.475 20.4435 109.993 21.0425 108.825 22.2403C107.657 23.4082 107.073 24.9205 107.073 26.7772C107.073 28.6339 107.657 30.1612 108.825 31.3591ZM139.01 38.6361C135.626 38.6361 132.796 37.4981 130.52 35.2222C128.274 32.9462 127.151 30.1313 127.151 26.7772C127.151 23.4232 128.274 20.6082 130.52 18.3323C132.796 16.0564 135.626 14.9184 139.01 14.9184C141.196 14.9184 143.187 15.4425 144.984 16.4906C146.781 17.5387 148.144 18.9462 149.072 20.713L144.086 23.6328C143.637 22.7045 142.948 21.9708 142.019 21.4318C141.121 20.8927 140.103 20.6232 138.965 20.6232C137.228 20.6232 135.791 21.2072 134.653 22.3751C133.515 23.5131 132.946 24.9804 132.946 26.7772C132.946 28.5441 133.515 30.0115 134.653 31.1794C135.791 32.3174 137.228 32.8863 138.965 32.8863C140.133 32.8863 141.166 32.6318 142.064 32.1227C142.993 31.5837 143.681 30.85 144.131 29.9216L149.162 32.7965C148.173 34.5633 146.781 35.9858 144.984 37.0639C143.187 38.112 141.196 38.6361 139.01 38.6361ZM162.468 14.9184C164.924 14.9184 166.945 15.7419 168.532 17.389C170.149 19.036 170.958 21.312 170.958 24.2168V38.0072H165.163V24.9355C165.163 23.4382 164.759 22.3002 163.951 21.5216C163.142 20.713 162.064 20.3088 160.716 20.3088C159.219 20.3088 158.021 20.7729 157.123 21.7013C156.224 22.6296 155.775 24.0221 155.775 25.8788V38.0072H149.98V6.56329H155.775V18.0628C157.183 15.9665 159.414 14.9184 162.468 14.9184ZM198.501 14.9184C201.076 14.9184 203.127 15.7569 204.655 17.4339C206.212 19.1109 206.99 21.3569 206.99 24.1719V38.0072H201.196V24.5762C201.196 23.2286 200.866 22.1804 200.208 21.4318C199.549 20.6831 198.62 20.3088 197.423 20.3088C196.105 20.3088 195.072 20.743 194.323 21.6114C193.604 22.4799 193.245 23.7377 193.245 25.3847V38.0072H187.45V24.5762C187.45 23.2286 187.121 22.1804 186.462 21.4318C185.803 20.6831 184.875 20.3088 183.677 20.3088C182.389 20.3088 181.356 20.743 180.578 21.6114C179.829 22.4799 179.455 23.7377 179.455 25.3847V38.0072H173.66V15.5473H179.455V17.928C180.802 15.9216 182.883 14.9184 185.698 14.9184C188.454 14.9184 190.49 15.9965 191.808 18.1526C193.305 15.9965 195.536 14.9184 198.501 14.9184ZM212.541 12.8521C211.583 12.8521 210.744 12.5077 210.025 11.8189C209.337 11.1002 208.992 10.2617 208.992 9.3034C208.992 8.34511 209.337 7.50661 210.025 6.78789C210.744 6.06917 211.583 5.70981 212.541 5.70981C213.529 5.70981 214.368 6.06917 215.056 6.78789C215.775 7.50661 216.134 8.34511 216.134 9.3034C216.134 10.2617 215.775 11.1002 215.056 11.8189C214.368 12.5077 213.529 12.8521 212.541 12.8521ZM209.666 38.0072V15.5473H215.461V38.0072H209.666ZM223.415 29.158C224.193 31.973 226.304 33.3805 229.748 33.3805C231.964 33.3805 233.641 32.6318 234.779 31.1345L239.451 33.8297C237.235 37.0339 233.971 38.6361 229.658 38.6361C225.945 38.6361 222.965 37.5131 220.719 35.2671C218.473 33.0211 217.35 30.1911 217.35 26.7772C217.35 23.3933 218.458 20.5783 220.675 18.3323C222.891 16.0564 225.735 14.9184 229.209 14.9184C232.503 14.9184 235.214 16.0564 237.34 18.3323C239.496 20.6082 240.574 23.4232 240.574 26.7772C240.574 27.5259 240.499 28.3195 240.349 29.158H223.415ZM223.325 24.666H234.779C234.45 23.1387 233.761 22.0008 232.713 21.2521C231.695 20.5034 230.527 20.1291 229.209 20.1291C227.652 20.1291 226.364 20.5334 225.346 21.3419C224.328 22.1205 223.654 23.2286 223.325 24.666Z" fill="#22215B"/>
</svg>
