<svg width="350" height="249" viewBox="0 0 350 249" fill="none" xmlns="http://www.w3.org/2000/svg">
<g clip-path="url(#clip0)">
<path d="M26.72 36.8H38.24V104H24.992V50.816L12.32 54.368L9.056 43.04L26.72 36.8Z" fill="#F7A32C"/>
<path d="M31.0685 173.141V98.6102C31.0735 90.8739 34.1503 83.4561 39.6225 77.9874C45.0947 72.5187 52.5144 69.4468 60.2508 69.4468H83.1053" fill="white"/>
<path d="M31.0685 173.141V98.6102C31.0735 90.8739 34.1503 83.4561 39.6225 77.9874C45.0947 72.5187 52.5144 69.4468 60.2508 69.4468H83.1053" stroke="#4D2E44" stroke-width="1.25885" stroke-linecap="round" stroke-linejoin="round"/>
<path d="M116.024 108.135C116.024 108.135 118.515 115.594 118.88 119.205" stroke="#4D2E44" stroke-width="1.67847" stroke-linecap="round" stroke-linejoin="round"/>
<path d="M146.682 105.435C146.458 110.13 146.536 114.835 146.914 119.52" stroke="#4D2E44" stroke-width="1.67847" stroke-linecap="round" stroke-linejoin="round"/>
<path d="M170.126 81.7478C170.994 82.6437 171.33 95.0434 179.177 94.8965" stroke="#4D2E44" stroke-width="1.25885" stroke-linecap="round" stroke-linejoin="round"/>
<path d="M85.3209 85.5642C81.8842 87.0811 76.9285 90.0289 72.9421 96.1344C78.5608 93.8265 97.8947 111.115 111.599 107.193C105.228 106.518 91.5732 96.512 85.3209 85.5642Z" fill="#4D2E44"/>
<path d="M96.4869 57.9807C79.8574 65.8968 79.6288 77.023 85.281 86.6973C82.3143 87.1651 75.1346 91.2081 59.9403 112.663C38.0656 143.549 39.1147 172.369 81.6639 173.103" stroke="#4D2E44" stroke-width="1.25885" stroke-linecap="round" stroke-linejoin="round"/>
<path d="M162.971 126.693V126.571C213.101 131.336 211.647 109.499 206.402 87.5469L193.234 44.0074C191.293 39.7734 189.558 41.5862 188.828 40.2623C187.139 37.1697 186.468 35.8123 186.468 35.8123C180.308 41.0302 168.005 38.7496 168.005 38.7496C168.005 38.7496 167.9 39.8763 167.814 43.3213C167.728 46.7664 163.89 46.2586 164.341 50.8367L170.111 81.7457L154.08 78.3279C153.054 72.7155 150.439 64.1994 144.153 58.8157" stroke="#4D2E44" stroke-width="1.25885" stroke-linecap="round" stroke-linejoin="round"/>
<path d="M165.313 172.992L165.052 155.045" stroke="#4D2E44" stroke-width="1.25885" stroke-linecap="round" stroke-linejoin="round"/>
<path d="M161.572 79.9246C159.041 78.8756 155.666 78.4832 153.456 78.1287C153.873 80.2323 154.056 82.3756 154.002 84.5194C153.526 95.5722 149.201 99.8858 148.171 103.956C161.463 99.0571 162.499 86.0951 161.572 79.9246Z" fill="#4D2E44"/>
<path d="M141.65 144.531C141.371 146.868 140.834 147.85 135.367 150.662C133.971 151.379 131.032 152.936 127.094 154.91C127.91 165 128.353 172.421 128.353 172.421L144.741 172.65C144.741 172.65 144.288 155.783 143.933 138.648C143.025 140.486 141.818 143.108 141.65 144.531Z" fill="#F7A02C"/>
<path d="M143.566 105.534C143.776 96.4932 140.314 87.6246 136.968 81.6912C136.426 89.9451 134.66 99.5123 132.792 102.632C123.98 96.5205 117.371 93.0167 112.088 90.2262C108.75 84.8446 105.933 80.0463 104.716 76.5655C104.732 76.0389 104.749 75.5039 104.766 74.9668L104.191 75.0234C105.66 79.8637 108.828 86.7455 115.387 95.9897C116.726 97.553 117.954 99.209 119.06 100.945C120.625 103.398 122.061 110.336 123.309 118.989C130.604 117.976 136.256 117.776 137.282 119.331L143.621 120.544C143.386 108.459 143.455 110.469 143.566 105.534Z" fill="#F7A02C"/>
<path d="M152.004 136.122L142.255 138.117" stroke="#4D2E44" stroke-width="1.25885" stroke-linecap="round" stroke-linejoin="round"/>
<path d="M163.573 150.123C164.392 153.27 166.2 159.325 167.56 159.241C169.49 159.121 168.458 147.034 168.189 143.325C168.057 141.422 166.72 135.3 165.629 132.205C164.205 128.156 157.711 115.825 144.506 120.323L134.966 122.659" stroke="#4D2E44" stroke-width="1.25885" stroke-linecap="round" stroke-linejoin="round"/>
<path d="M152.531 133.663C152.321 135.809 151.062 140.322 152.705 143.287" stroke="#4D2E44" stroke-width="1.25885" stroke-linecap="round" stroke-linejoin="round"/>
<path d="M165.313 143.09C165.313 143.09 164.282 151.855 161.353 152.531C158.425 153.207 158.238 150.735 158.238 150.735" stroke="#4D2E44" stroke-width="1.25885" stroke-linecap="round" stroke-linejoin="round"/>
<path d="M161.798 142.79C161.798 142.79 160.216 150.517 157.243 150.972C154.27 151.427 154.27 148.964 154.27 148.964" stroke="#4D2E44" stroke-width="1.25885" stroke-linecap="round" stroke-linejoin="round"/>
<path d="M157.462 142.313C157.462 142.313 155.408 151.577 152.109 148.064C148.811 144.552 149.159 142.762 149.159 142.762C149.159 142.762 150.746 140.217 153.288 144.281" stroke="#4D2E44" stroke-width="1.25885" stroke-linecap="round" stroke-linejoin="round"/>
<path d="M141.783 143.056C134.366 137.039 131.85 121.884 134.985 118.567C135.111 117.518 137.519 119.291 138.971 119.452C142.475 119.843 143.986 119.95 143.986 119.95C142.565 124.318 144.147 129.601 145.773 133.359C146.471 135.019 147.278 136.631 148.19 138.184C147.911 138.325 146.784 138.881 144.105 140.056C142.561 140.742 142.234 141.9 141.783 143.056Z" fill="#4D2E44"/>
<path d="M83.1053 120.3C86.3805 119.216 95.1987 117.713 97.8885 123.924" stroke="#4D2E44" stroke-width="1.25885" stroke-linecap="round" stroke-linejoin="round"/>
<path d="M83.1053 127.404C83.1053 127.404 133.994 114.333 137.284 119.323L145.011 136.6C145.011 136.6 141.927 142.192 141.655 144.531C141.382 146.87 140.838 147.85 135.371 150.662C129.903 153.473 101.338 169.882 80.8624 173.103" stroke="#4D2E44" stroke-width="1.25885" stroke-linecap="round" stroke-linejoin="round"/>
<path d="M105.097 64.8728C104.986 68.1458 104.839 72.577 104.716 76.5613C105.932 80.042 108.75 84.8403 112.088 90.2219C117.371 93.0124 123.974 96.5162 132.792 102.628C134.68 99.5081 136.426 89.9408 136.967 81.6869" stroke="#4D2E44" stroke-width="1.25885" stroke-linecap="round" stroke-linejoin="round"/>
<path d="M102.412 49.5149C100.832 49.6555 94.9197 50.5996 96.1722 56.8582C97.1667 61.837 101.717 61.3943 104.443 60.6348" stroke="#4D2E44" stroke-width="1.25885" stroke-linecap="round" stroke-linejoin="round"/>
<path d="M144.049 37.7908C145.169 46.3363 144.651 55.5091 143.774 62.3384" stroke="#4D2E44" stroke-width="1.25885" stroke-linecap="round" stroke-linejoin="round"/>
<path d="M143.774 62.3301C143.406 65.2045 142.974 67.6613 142.573 69.4762" stroke="#4D2E44" stroke-width="1.25885" stroke-linecap="round" stroke-linejoin="round"/>
<path d="M107.063 51.0107C108.387 52.3493 111.937 60.0661 112.804 63.6643C112.804 63.6643 121.588 60.641 134.175 60.4563C134.175 60.4563 141.038 60.5969 143.774 61.4278C143.774 61.4278 143.182 74.1694 137.618 80.7679C132.054 87.3664 120.29 85.5201 114.765 81.5526C109.241 77.5851 108.335 75.6927 107.057 71.4482C105.779 67.2038 102.406 51.38 102.406 51.38L107.063 51.0107Z" stroke="#4D2E44" stroke-width="1.25885" stroke-linecap="round" stroke-linejoin="round"/>
<path d="M130.711 71.4734C130.711 71.4734 134.141 70.7916 135.537 72.1553L130.711 71.4734Z" fill="white"/>
<path d="M130.711 71.4734C130.711 71.4734 134.141 70.7916 135.537 72.1553" stroke="#4D2E44" stroke-width="1.25885" stroke-linecap="round" stroke-linejoin="round"/>
<path d="M135.083 55.551L136.359 66.652L132.444 65.6512" stroke="#4D2E44" stroke-width="1.25885" stroke-linecap="round" stroke-linejoin="round"/>
<path d="M139.181 58.5536C139.809 58.5536 140.318 57.7654 140.318 56.7933C140.318 55.8211 139.809 55.033 139.181 55.033C138.553 55.033 138.044 55.8211 138.044 56.7933C138.044 57.7654 138.553 58.5536 139.181 58.5536Z" fill="#4D2E44"/>
<path d="M128.231 58.3604C128.859 58.3604 129.368 57.5723 129.368 56.6001C129.368 55.628 128.859 54.8398 128.231 54.8398C127.603 54.8398 127.094 55.628 127.094 56.6001C127.094 57.5723 127.603 58.3604 128.231 58.3604Z" fill="#4D2E44"/>
<path d="M123.298 47.4168C123.872 46.6814 124.633 46.1134 125.502 45.772C126.37 45.4307 127.314 45.3285 128.235 45.4761" stroke="#4D2E44" stroke-width="1.25885" stroke-linecap="round" stroke-linejoin="round"/>
<path d="M138.684 45.283C138.684 45.283 141.831 44.4648 142.626 47.0433" stroke="#4D2E44" stroke-width="1.25885" stroke-linecap="round" stroke-linejoin="round"/>
<path d="M151.272 35.9907C150.995 35.1808 151.31 34.1947 151.889 33.2023L151.738 33.0324L151.027 35.0256C151.027 35.0256 148.801 35.9844 148.066 33.1373C147.84 32.2666 148.354 31.205 149.172 30.1538L149.149 30.1265C146.054 30.8441 140.008 32.0148 139.462 30.7979C138.692 29.0754 149.602 24.5037 152.925 23.035C154.629 22.2902 160.525 20.6726 163.701 20.211C165.808 19.943 167.94 19.9198 170.052 20.1417C170.298 18.1894 169.917 16.2096 168.965 14.4874C167.935 12.5865 165.783 9.76039 163.871 8.74701C144.928 -1.30073 135.685 15.6707 135.685 15.6707C135.685 15.6707 133.019 8.39244 124.387 8.13227C122.636 8.08513 120.894 8.39574 119.268 9.0451C117.641 9.69447 116.164 10.6689 114.927 11.9088C107.858 18.9941 112.571 27.0151 112.571 27.0151C112.571 27.0151 109.279 25.3366 104.839 27.4788C99.5354 30.0447 96.8666 36.0515 98.245 41.7814C99.7137 47.8659 102.412 53.6587 102.412 53.6587C119.65 56.3275 124.056 39.4022 121.517 37.2181C125.34 40.0463 132.217 41.9409 143.866 40.7701C146.533 40.4932 149.803 39.4442 153.133 37.8538C152.489 37.7657 151.74 37.3461 151.272 35.9907Z" fill="#4D2E44"/>
<path d="M167.442 34.3667L170.184 45.4047L185.763 40.7973" stroke="#4D2E44" stroke-width="1.25885" stroke-linecap="round" stroke-linejoin="round"/>
<path d="M149.157 30.1349C146.063 30.8525 140.016 32.0232 139.47 30.8063C138.7 29.0838 149.61 24.512 152.934 23.0434C154.638 22.2985 160.533 20.6809 163.71 20.2193C167.853 19.6214 182.918 19.2395 185.005 32.6862L187.236 41.0009L172.419 45.3943" stroke="#4D2E44" stroke-width="1.25885" stroke-linecap="round" stroke-linejoin="round"/>
<path d="M171.634 32.2434C169.878 33.4016 163.288 36.5193 159.979 36.4396" stroke="#4D2E44" stroke-width="1.25885" stroke-linecap="round" stroke-linejoin="round"/>
<path d="M154.447 25.45C154.447 25.45 147.338 30.307 148.075 33.1499C148.811 35.9928 151.035 35.0382 151.035 35.0382" stroke="#4D2E44" stroke-width="1.25885" stroke-linecap="round" stroke-linejoin="round"/>
<path d="M156.295 28.3516C156.295 28.3516 150.334 33.2149 151.281 35.9907C152.227 38.7665 154.373 37.6461 154.373 37.6461" stroke="#4D2E44" stroke-width="1.25885" stroke-linecap="round" stroke-linejoin="round"/>
<path d="M158.67 31.8909C158.67 31.8909 151.595 37.8557 156.121 39.1167C160.647 40.3776 162.038 39.2698 162.038 39.2698C162.038 39.2698 163.519 36.7521 158.857 36.3871" stroke="#4D2E44" stroke-width="1.25885" stroke-linecap="round" stroke-linejoin="round"/>
<path d="M165.938 46.6132C168.915 50.5597 189.086 47.5867 192.405 42.4884C190.815 40.3064 189.548 41.5505 188.839 40.2623C187.15 37.1697 186.478 35.8123 186.478 35.8123C182.974 38.7811 177.479 39.3224 173.392 39.2384C171.59 39.2225 169.791 39.0872 168.007 38.8335C167.981 39.1461 167.895 40.3987 167.822 43.3234C167.786 45.0166 166.838 45.7572 165.938 46.6132Z" fill="#4D2E44"/>
<path d="M276.018 114.539H194.443C193.923 114.539 193.418 114.714 193.01 115.037C192.602 115.359 192.315 115.81 192.195 116.316L180.855 164.325H151.285C151.285 164.325 149.646 172.788 159.203 172.788H263.348C263.868 172.789 264.373 172.613 264.781 172.291C265.188 171.968 265.475 171.517 265.595 171.011L278.263 117.378C278.343 117.039 278.346 116.686 278.27 116.347C278.195 116.007 278.043 115.688 277.827 115.415C277.612 115.142 277.337 114.922 277.023 114.77C276.71 114.618 276.366 114.539 276.018 114.539Z" fill="#4D2E44"/>
<path d="M261.042 138.708C280.74 138.708 296.708 122.74 296.708 103.042C296.708 83.3435 280.74 67.375 261.042 67.375C241.344 67.375 225.375 83.3435 225.375 103.042C225.375 122.74 241.344 138.708 261.042 138.708Z" stroke="#F7A02C" stroke-width="8.91667" stroke-linecap="round" stroke-linejoin="round"/>
<path d="M305.625 147.625L286.231 128.231" stroke="#F7A02C" stroke-width="8.91667" stroke-linecap="round" stroke-linejoin="round"/>
<path d="M0.629395 173.103H318.163" stroke="#4D2E44" stroke-width="1.25885" stroke-linecap="round" stroke-linejoin="round"/>
</g>
<path d="M47.0201 232.442C44.7988 232.442 42.8948 231.921 41.3081 230.878C39.7441 229.835 38.6448 228.407 38.0101 226.594L40.7301 225.03C41.6595 227.909 43.7788 229.348 47.0881 229.348C48.7201 229.348 49.9668 229.019 50.8281 228.362C51.6895 227.682 52.1201 226.787 52.1201 225.676C52.1201 224.543 51.6895 223.693 50.8281 223.126C49.9668 222.559 48.5275 221.959 46.5101 221.324C45.5128 221.007 44.7535 220.757 44.2321 220.576C43.7108 220.372 43.0535 220.077 42.2601 219.692C41.4895 219.284 40.9115 218.876 40.5261 218.468C40.1408 218.037 39.7895 217.482 39.4721 216.802C39.1775 216.122 39.0301 215.351 39.0301 214.49C39.0301 212.427 39.7555 210.795 41.2061 209.594C42.6568 208.37 44.4248 207.758 46.5101 207.758C48.3915 207.758 50.0235 208.234 51.4061 209.186C52.8115 210.138 53.8655 211.396 54.5681 212.96L51.9161 214.49C50.8961 212.042 49.0941 210.818 46.5101 210.818C45.2181 210.818 44.1755 211.135 43.3821 211.77C42.5888 212.405 42.1921 213.266 42.1921 214.354C42.1921 215.397 42.5661 216.19 43.3141 216.734C44.0621 217.278 45.3541 217.845 47.1901 218.434C47.8475 218.638 48.3121 218.785 48.5841 218.876C48.8561 218.967 49.2755 219.125 49.8421 219.352C50.4315 219.579 50.8621 219.76 51.1341 219.896C51.4061 220.032 51.7688 220.225 52.2221 220.474C52.6981 220.723 53.0495 220.961 53.2761 221.188C53.5028 221.415 53.7635 221.698 54.0581 222.038C54.3755 222.355 54.6021 222.684 54.7381 223.024C54.8741 223.364 54.9875 223.761 55.0781 224.214C55.1915 224.645 55.2481 225.109 55.2481 225.608C55.2481 227.693 54.4888 229.359 52.9701 230.606C51.4515 231.83 49.4681 232.442 47.0201 232.442ZM61.1588 224.86C61.4535 226.379 62.1448 227.557 63.2328 228.396C64.3435 229.235 65.7035 229.654 67.3128 229.654C69.5568 229.654 71.1888 228.827 72.2088 227.172L74.7248 228.6C73.0702 231.161 70.5768 232.442 67.2448 232.442C64.5475 232.442 62.3488 231.603 60.6488 229.926C58.9715 228.226 58.1328 226.084 58.1328 223.5C58.1328 220.939 58.9602 218.808 60.6148 217.108C62.2695 215.408 64.4115 214.558 67.0408 214.558C69.5342 214.558 71.5628 215.442 73.1268 217.21C74.7135 218.955 75.5068 221.063 75.5068 223.534C75.5068 223.965 75.4728 224.407 75.4048 224.86H61.1588ZM67.0408 217.346C65.4542 217.346 64.1395 217.799 63.0968 218.706C62.0542 219.59 61.4082 220.78 61.1588 222.276H72.5148C72.2655 220.667 71.6308 219.443 70.6108 218.604C69.5908 217.765 68.4008 217.346 67.0408 217.346ZM92.9499 215H95.9079V232H92.9499V229.076C91.4766 231.32 89.3346 232.442 86.5239 232.442C84.1439 232.442 82.1152 231.581 80.4379 229.858C78.7605 228.113 77.9219 225.993 77.9219 223.5C77.9219 221.007 78.7605 218.899 80.4379 217.176C82.1152 215.431 84.1439 214.558 86.5239 214.558C89.3346 214.558 91.4766 215.68 92.9499 217.924V215ZM86.8979 229.586C88.6206 229.586 90.0599 229.008 91.2159 227.852C92.3719 226.673 92.9499 225.223 92.9499 223.5C92.9499 221.777 92.3719 220.338 91.2159 219.182C90.0599 218.003 88.6206 217.414 86.8979 217.414C85.1979 217.414 83.7699 218.003 82.6139 219.182C81.4579 220.338 80.8799 221.777 80.8799 223.5C80.8799 225.223 81.4579 226.673 82.6139 227.852C83.7699 229.008 85.1979 229.586 86.8979 229.586ZM103.348 217.856C104.322 215.748 106.09 214.694 108.652 214.694V217.788C107.201 217.72 105.954 218.105 104.912 218.944C103.869 219.783 103.348 221.131 103.348 222.99V232H100.39V215H103.348V217.856ZM118.606 232.442C116.045 232.442 113.914 231.592 112.214 229.892C110.514 228.169 109.664 226.039 109.664 223.5C109.664 220.961 110.514 218.842 112.214 217.142C113.914 215.419 116.045 214.558 118.606 214.558C120.283 214.558 121.791 214.966 123.128 215.782C124.465 216.575 125.463 217.652 126.12 219.012L123.638 220.44C123.207 219.533 122.539 218.808 121.632 218.264C120.748 217.72 119.739 217.448 118.606 217.448C116.906 217.448 115.478 218.026 114.322 219.182C113.189 220.338 112.622 221.777 112.622 223.5C112.622 225.2 113.189 226.628 114.322 227.784C115.478 228.94 116.906 229.518 118.606 229.518C119.739 229.518 120.759 229.257 121.666 228.736C122.573 228.192 123.264 227.467 123.74 226.56L126.256 228.022C125.531 229.359 124.488 230.436 123.128 231.252C121.768 232.045 120.261 232.442 118.606 232.442ZM137.643 214.558C139.637 214.558 141.235 215.193 142.437 216.462C143.638 217.709 144.239 219.409 144.239 221.562V232H141.281V221.732C141.281 220.349 140.907 219.284 140.159 218.536C139.411 217.765 138.379 217.38 137.065 217.38C135.591 217.38 134.401 217.845 133.495 218.774C132.588 219.681 132.135 221.086 132.135 222.99V232H129.177V208.2H132.135V217.448C133.336 215.521 135.172 214.558 137.643 214.558ZM165.606 210.614C162.614 210.365 161.118 211.657 161.118 214.49V215H165.606V217.856H161.118V232H158.16V217.856H155.44V215H158.16V214.49C158.16 212.201 158.795 210.467 160.064 209.288C161.356 208.109 163.203 207.599 165.606 207.758V210.614ZM181.277 229.858C179.531 231.581 177.412 232.442 174.919 232.442C172.425 232.442 170.306 231.581 168.561 229.858C166.838 228.135 165.977 226.016 165.977 223.5C165.977 220.984 166.838 218.865 168.561 217.142C170.306 215.419 172.425 214.558 174.919 214.558C177.412 214.558 179.531 215.419 181.277 217.142C183.022 218.865 183.895 220.984 183.895 223.5C183.895 226.016 183.022 228.135 181.277 229.858ZM174.919 229.552C176.619 229.552 178.047 228.974 179.203 227.818C180.359 226.662 180.937 225.223 180.937 223.5C180.937 221.777 180.359 220.338 179.203 219.182C178.047 218.026 176.619 217.448 174.919 217.448C173.241 217.448 171.825 218.026 170.669 219.182C169.513 220.338 168.935 221.777 168.935 223.5C168.935 225.223 169.513 226.662 170.669 227.818C171.825 228.974 173.241 229.552 174.919 229.552ZM190.34 217.856C191.314 215.748 193.082 214.694 195.644 214.694V217.788C194.193 217.72 192.946 218.105 191.904 218.944C190.861 219.783 190.34 221.131 190.34 222.99V232H187.382V215H190.34V217.856ZM218.53 232.442C214.926 232.442 211.945 231.252 209.588 228.872C207.253 226.492 206.086 223.568 206.086 220.1C206.086 216.632 207.253 213.708 209.588 211.328C211.945 208.948 214.926 207.758 218.53 207.758C220.706 207.758 222.701 208.279 224.514 209.322C226.35 210.365 227.778 211.77 228.798 213.538L226.044 215.136C225.364 213.821 224.344 212.779 222.984 212.008C221.647 211.215 220.162 210.818 218.53 210.818C215.787 210.818 213.543 211.702 211.798 213.47C210.075 215.238 209.214 217.448 209.214 220.1C209.214 222.729 210.075 224.928 211.798 226.696C213.543 228.464 215.787 229.348 218.53 229.348C220.162 229.348 221.647 228.963 222.984 228.192C224.344 227.399 225.364 226.356 226.044 225.064L228.798 226.628C227.801 228.396 226.384 229.813 224.548 230.878C222.712 231.921 220.706 232.442 218.53 232.442ZM246.355 229.858C244.609 231.581 242.49 232.442 239.997 232.442C237.503 232.442 235.384 231.581 233.639 229.858C231.916 228.135 231.055 226.016 231.055 223.5C231.055 220.984 231.916 218.865 233.639 217.142C235.384 215.419 237.503 214.558 239.997 214.558C242.49 214.558 244.609 215.419 246.355 217.142C248.1 218.865 248.973 220.984 248.973 223.5C248.973 226.016 248.1 228.135 246.355 229.858ZM239.997 229.552C241.697 229.552 243.125 228.974 244.281 227.818C245.437 226.662 246.015 225.223 246.015 223.5C246.015 221.777 245.437 220.338 244.281 219.182C243.125 218.026 241.697 217.448 239.997 217.448C238.319 217.448 236.903 218.026 235.747 219.182C234.591 220.338 234.013 221.777 234.013 223.5C234.013 225.223 234.591 226.662 235.747 227.818C236.903 228.974 238.319 229.552 239.997 229.552ZM266.536 215H269.494V232H266.536V229.076C265.062 231.32 262.92 232.442 260.11 232.442C257.73 232.442 255.701 231.581 254.024 229.858C252.346 228.113 251.508 225.993 251.508 223.5C251.508 221.007 252.346 218.899 254.024 217.176C255.701 215.431 257.73 214.558 260.11 214.558C262.92 214.558 265.062 215.68 266.536 217.924V215ZM260.484 229.586C262.206 229.586 263.646 229.008 264.802 227.852C265.958 226.673 266.536 225.223 266.536 223.5C266.536 221.777 265.958 220.338 264.802 219.182C263.646 218.003 262.206 217.414 260.484 217.414C258.784 217.414 257.356 218.003 256.2 219.182C255.044 220.338 254.466 221.777 254.466 223.5C254.466 225.223 255.044 226.673 256.2 227.852C257.356 229.008 258.784 229.586 260.484 229.586ZM281.965 232.442C279.404 232.442 277.273 231.592 275.573 229.892C273.873 228.169 273.023 226.039 273.023 223.5C273.023 220.961 273.873 218.842 275.573 217.142C277.273 215.419 279.404 214.558 281.965 214.558C283.643 214.558 285.15 214.966 286.487 215.782C287.825 216.575 288.822 217.652 289.479 219.012L286.997 220.44C286.567 219.533 285.898 218.808 284.991 218.264C284.107 217.72 283.099 217.448 281.965 217.448C280.265 217.448 278.837 218.026 277.681 219.182C276.548 220.338 275.981 221.777 275.981 223.5C275.981 225.2 276.548 226.628 277.681 227.784C278.837 228.94 280.265 229.518 281.965 229.518C283.099 229.518 284.119 229.257 285.025 228.736C285.932 228.192 286.623 227.467 287.099 226.56L289.615 228.022C288.89 229.359 287.847 230.436 286.487 231.252C285.127 232.045 283.62 232.442 281.965 232.442ZM301.002 214.558C302.997 214.558 304.595 215.193 305.796 216.462C306.997 217.709 307.598 219.409 307.598 221.562V232H304.64V221.732C304.64 220.349 304.266 219.284 303.518 218.536C302.77 217.765 301.739 217.38 300.424 217.38C298.951 217.38 297.761 217.845 296.854 218.774C295.947 219.681 295.494 221.086 295.494 222.99V232H292.536V208.2H295.494V217.448C296.695 215.521 298.531 214.558 301.002 214.558ZM313.801 224.86C314.096 226.379 314.787 227.557 315.875 228.396C316.986 229.235 318.346 229.654 319.955 229.654C322.199 229.654 323.831 228.827 324.851 227.172L327.367 228.6C325.713 231.161 323.219 232.442 319.887 232.442C317.19 232.442 314.991 231.603 313.291 229.926C311.614 228.226 310.775 226.084 310.775 223.5C310.775 220.939 311.603 218.808 313.257 217.108C314.912 215.408 317.054 214.558 319.683 214.558C322.177 214.558 324.205 215.442 325.769 217.21C327.356 218.955 328.149 221.063 328.149 223.534C328.149 223.965 328.115 224.407 328.047 224.86H313.801ZM319.683 217.346C318.097 217.346 316.782 217.799 315.739 218.706C314.697 219.59 314.051 220.78 313.801 222.276H325.157C324.908 220.667 324.273 219.443 323.253 218.604C322.233 217.765 321.043 217.346 319.683 217.346ZM333.436 219.59C333.436 220.247 333.764 220.78 334.422 221.188C335.079 221.573 335.872 221.891 336.802 222.14C337.731 222.367 338.66 222.639 339.59 222.956C340.519 223.251 341.312 223.772 341.97 224.52C342.627 225.245 342.956 226.186 342.956 227.342C342.956 228.883 342.355 230.119 341.154 231.048C339.975 231.977 338.456 232.442 336.598 232.442C334.943 232.442 333.526 232.079 332.348 231.354C331.169 230.629 330.33 229.665 329.832 228.464L332.382 227.002C332.654 227.818 333.164 228.464 333.912 228.94C334.66 229.416 335.555 229.654 336.598 229.654C337.572 229.654 338.377 229.473 339.012 229.11C339.646 228.725 339.964 228.135 339.964 227.342C339.964 226.685 339.635 226.163 338.978 225.778C338.32 225.37 337.527 225.053 336.598 224.826C335.668 224.577 334.739 224.293 333.81 223.976C332.88 223.659 332.087 223.137 331.43 222.412C330.772 221.687 330.444 220.757 330.444 219.624C330.444 218.151 331.01 216.938 332.144 215.986C333.3 215.034 334.739 214.558 336.462 214.558C337.844 214.558 339.068 214.875 340.134 215.51C341.222 216.122 342.038 216.983 342.582 218.094L340.1 219.488C339.488 218.037 338.275 217.312 336.462 217.312C335.623 217.312 334.909 217.516 334.32 217.924C333.73 218.309 333.436 218.865 333.436 219.59Z" fill="black"/>
<defs>
<clipPath id="clip0">
<rect width="318.792" height="173.77" fill="white"/>
</clipPath>
</defs>
</svg>
