<svg width="359" height="283" viewBox="0 0 359 283" fill="none" xmlns="http://www.w3.org/2000/svg">
<path d="M136.921 254.202V255.63C136.921 258.735 135.856 261.319 133.725 263.382C131.594 265.422 128.772 266.442 125.259 266.442C121.632 266.442 118.629 265.252 116.249 262.872C113.892 260.469 112.713 257.545 112.713 254.1C112.713 250.655 113.892 247.742 116.249 245.362C118.629 242.959 121.61 241.758 125.191 241.758C127.39 241.758 129.407 242.291 131.243 243.356C133.079 244.399 134.496 245.781 135.493 247.504L132.773 249.102C132.093 247.81 131.062 246.779 129.679 246.008C128.319 245.215 126.812 244.818 125.157 244.818C122.437 244.818 120.204 245.713 118.459 247.504C116.714 249.272 115.841 251.471 115.841 254.1C115.841 256.729 116.714 258.928 118.459 260.696C120.227 262.464 122.505 263.348 125.293 263.348C127.673 263.348 129.6 262.77 131.073 261.614C132.546 260.435 133.442 258.917 133.759 257.058H125.021V254.202H136.921ZM142.534 258.86C142.828 260.379 143.52 261.557 144.608 262.396C145.718 263.235 147.078 263.654 148.688 263.654C150.932 263.654 152.564 262.827 153.584 261.172L156.1 262.6C154.445 265.161 151.952 266.442 148.62 266.442C145.922 266.442 143.724 265.603 142.024 263.926C140.346 262.226 139.508 260.084 139.508 257.5C139.508 254.939 140.335 252.808 141.99 251.108C143.644 249.408 145.786 248.558 148.416 248.558C150.909 248.558 152.938 249.442 154.502 251.21C156.088 252.955 156.882 255.063 156.882 257.534C156.882 257.965 156.848 258.407 156.78 258.86H142.534ZM148.416 251.346C146.829 251.346 145.514 251.799 144.472 252.706C143.429 253.59 142.783 254.78 142.534 256.276H153.89C153.64 254.667 153.006 253.443 151.986 252.604C150.966 251.765 149.776 251.346 148.416 251.346ZM169.032 251.856H164.51V261.07C164.51 261.909 164.669 262.509 164.986 262.872C165.326 263.212 165.836 263.393 166.516 263.416C167.196 263.416 168.035 263.393 169.032 263.348V266C166.448 266.34 164.555 266.136 163.354 265.388C162.153 264.617 161.552 263.178 161.552 261.07V251.856H158.186V249H161.552V245.124L164.51 244.24V249H169.032V251.856ZM192.626 266.442C189.022 266.442 186.041 265.252 183.684 262.872C181.349 260.492 180.182 257.568 180.182 254.1C180.182 250.632 181.349 247.708 183.684 245.328C186.041 242.948 189.022 241.758 192.626 241.758C194.802 241.758 196.796 242.279 198.61 243.322C200.446 244.365 201.874 245.77 202.894 247.538L200.14 249.136C199.46 247.821 198.44 246.779 197.08 246.008C195.742 245.215 194.258 244.818 192.626 244.818C189.883 244.818 187.639 245.702 185.894 247.47C184.171 249.238 183.31 251.448 183.31 254.1C183.31 256.729 184.171 258.928 185.894 260.696C187.639 262.464 189.883 263.348 192.626 263.348C194.258 263.348 195.742 262.963 197.08 262.192C198.44 261.399 199.46 260.356 200.14 259.064L202.894 260.628C201.896 262.396 200.48 263.813 198.644 264.878C196.808 265.921 194.802 266.442 192.626 266.442ZM220.45 263.858C218.705 265.581 216.586 266.442 214.092 266.442C211.599 266.442 209.48 265.581 207.734 263.858C206.012 262.135 205.15 260.016 205.15 257.5C205.15 254.984 206.012 252.865 207.734 251.142C209.48 249.419 211.599 248.558 214.092 248.558C216.586 248.558 218.705 249.419 220.45 251.142C222.196 252.865 223.068 254.984 223.068 257.5C223.068 260.016 222.196 262.135 220.45 263.858ZM214.092 263.552C215.792 263.552 217.22 262.974 218.376 261.818C219.532 260.662 220.11 259.223 220.11 257.5C220.11 255.777 219.532 254.338 218.376 253.182C217.22 252.026 215.792 251.448 214.092 251.448C212.415 251.448 210.998 252.026 209.842 253.182C208.686 254.338 208.108 255.777 208.108 257.5C208.108 259.223 208.686 260.662 209.842 261.818C210.998 262.974 212.415 263.552 214.092 263.552ZM240.632 249H243.59V266H240.632V263.076C239.158 265.32 237.016 266.442 234.206 266.442C231.826 266.442 229.797 265.581 228.12 263.858C226.442 262.113 225.604 259.993 225.604 257.5C225.604 255.007 226.442 252.899 228.12 251.176C229.797 249.431 231.826 248.558 234.206 248.558C237.016 248.558 239.158 249.68 240.632 251.924V249ZM234.58 263.586C236.302 263.586 237.742 263.008 238.898 261.852C240.054 260.673 240.632 259.223 240.632 257.5C240.632 255.777 240.054 254.338 238.898 253.182C237.742 252.003 236.302 251.414 234.58 251.414C232.88 251.414 231.452 252.003 230.296 253.182C229.14 254.338 228.562 255.777 228.562 257.5C228.562 259.223 229.14 260.673 230.296 261.852C231.452 263.008 232.88 263.586 234.58 263.586ZM256.061 266.442C253.5 266.442 251.369 265.592 249.669 263.892C247.969 262.169 247.119 260.039 247.119 257.5C247.119 254.961 247.969 252.842 249.669 251.142C251.369 249.419 253.5 248.558 256.061 248.558C257.738 248.558 259.246 248.966 260.583 249.782C261.92 250.575 262.918 251.652 263.575 253.012L261.093 254.44C260.662 253.533 259.994 252.808 259.087 252.264C258.203 251.72 257.194 251.448 256.061 251.448C254.361 251.448 252.933 252.026 251.777 253.182C250.644 254.338 250.077 255.777 250.077 257.5C250.077 259.2 250.644 260.628 251.777 261.784C252.933 262.94 254.361 263.518 256.061 263.518C257.194 263.518 258.214 263.257 259.121 262.736C260.028 262.192 260.719 261.467 261.195 260.56L263.711 262.022C262.986 263.359 261.943 264.436 260.583 265.252C259.223 266.045 257.716 266.442 256.061 266.442ZM275.098 248.558C277.092 248.558 278.69 249.193 279.892 250.462C281.093 251.709 281.694 253.409 281.694 255.562V266H278.736V255.732C278.736 254.349 278.362 253.284 277.614 252.536C276.866 251.765 275.834 251.38 274.52 251.38C273.046 251.38 271.856 251.845 270.95 252.774C270.043 253.681 269.59 255.086 269.59 256.99V266H266.632V242.2H269.59V251.448C270.791 249.521 272.627 248.558 275.098 248.558Z" fill="black"/>
<g clip-path="url(#clip0)">
<path d="M134.51 137.282C131.692 135.774 129.301 136.5 126.647 139.295C127.86 132.507 127.819 124.274 122.436 122.888C116.893 121.455 113.752 124.907 110.503 133.248C110.626 126.09 109.211 116.858 103.284 116.483C96.6184 116.061 94.4152 121.543 92.7598 133.702C90.6884 126.902 84.9663 114.992 78.2423 117.353C71.65 119.665 72.0749 126.02 75.7372 138.976C72.1247 133.383 64.8967 125.068 60.0595 128.229C55.4566 131.229 56.7165 136.119 61.8174 145.205C58.451 143.74 54.9498 143.596 52.1488 146.362C45.8613 152.573 48.8849 158.457 57.6101 169.376C66.3353 180.296 129.011 160.979 131.985 156.04C134.959 151.1 139.632 140.019 134.51 137.282Z" fill="white" stroke="#F7A02C" stroke-width="1.75792" stroke-linecap="round" stroke-linejoin="round"/>
<path d="M147.888 95.064C152.432 96.408 156.112 98.776 158.928 102.168C161.808 105.496 163.248 109.528 163.248 114.264C163.248 121.176 160.912 126.584 156.24 130.488C151.632 134.392 145.968 136.344 139.248 136.344C134 136.344 129.296 135.16 125.136 132.792C121.04 130.36 118.064 126.808 116.208 122.136L127.536 115.608C129.2 120.792 133.104 123.384 139.248 123.384C142.64 123.384 145.264 122.584 147.12 120.984C149.04 119.32 150 117.08 150 114.264C150 111.512 149.04 109.304 147.12 107.64C145.264 105.976 142.64 105.144 139.248 105.144H136.368L131.28 97.464L144.528 80.184H118.224V67.8H160.464V78.744L147.888 95.064Z" fill="#F7A32C"/>
<path d="M135.003 155.834L135.052 155.673L50.7717 155.934L50.8245 156.095C48.614 156.526 46.6564 157.796 45.3623 159.639C44.0682 161.483 43.5382 163.755 43.8836 165.981L50.1916 206.641L135.633 206.381L141.944 165.72C142.288 163.495 141.758 161.222 140.464 159.379C139.17 157.536 137.213 156.266 135.003 155.834Z" fill="#F7A02C"/>
<path d="M273.064 141.176C271.756 141.177 270.449 141.253 269.15 141.405C262.153 131.736 254.123 123.532 245.685 118.323C223.71 104.79 193.533 108.654 165.368 119.082C146.01 126.245 121.473 149.309 105.739 165.667C85.23 167.208 69.4644 181.169 70.4107 197.14C70.619 200.57 71.5793 203.913 73.2234 206.931L142.058 207.388C142.178 207.204 142.292 207.013 142.406 206.826L244.498 206.474C244.609 206.629 244.724 206.767 244.838 206.931L301.361 206.834C306.594 199.899 309.737 191.013 309.737 181.309C309.729 159.142 293.31 141.176 273.064 141.176Z" fill="#4D2E44"/>
<path d="M247.686 119.624C221.709 135.724 198.352 136.078 183.255 133.488C169.244 131.086 159.154 125.68 155.852 123.579C155.291 123.896 154.73 124.22 154.167 124.552C156.86 126.407 167.407 132.495 182.642 135.164C187.603 136.035 192.63 136.474 197.667 136.474C202.815 136.471 207.953 136.017 213.022 135.117C225.328 132.932 237.525 128.085 249.244 120.717C248.717 120.342 248.197 119.978 247.686 119.624Z" fill="white"/>
<path d="M244.993 147.338C249.124 141.536 254.234 138.275 260.184 137.643C262.34 137.412 264.52 137.547 266.63 138.044C266.081 137.335 265.526 136.637 264.966 135.949C263.351 135.74 261.717 135.719 260.096 135.885C255.623 136.342 249.124 138.522 243.572 146.318C243.437 146.508 243.384 146.744 243.423 146.973C243.462 147.203 243.59 147.408 243.78 147.543C243.929 147.649 244.107 147.706 244.29 147.707C244.428 147.705 244.563 147.67 244.685 147.606C244.808 147.542 244.913 147.45 244.993 147.338Z" fill="white"/>
<path d="M245.31 167.929H245.327C245.558 167.929 245.779 167.838 245.944 167.677C246.108 167.515 246.202 167.295 246.206 167.064C246.256 164.48 247.299 158.635 250.894 153.124C255.066 146.722 261.204 142.776 269.129 141.378C268.746 140.851 268.359 140.324 267.957 139.802C260.047 141.413 253.645 145.662 249.411 152.163C245.852 157.627 244.51 163.59 244.431 167.032C244.428 167.149 244.449 167.265 244.492 167.374C244.536 167.483 244.6 167.582 244.682 167.665C244.764 167.749 244.861 167.815 244.969 167.86C245.077 167.906 245.193 167.929 245.31 167.929Z" fill="white"/>
<path d="M121.174 159.265C117.847 159.127 114.516 159.382 111.25 160.027C110.365 160.914 109.499 161.793 108.651 162.664C111.901 160.879 130.417 158.656 138.064 167.351C138.147 167.444 138.249 167.518 138.363 167.569C138.476 167.619 138.599 167.645 138.724 167.644C138.939 167.646 139.148 167.567 139.31 167.425C139.484 167.271 139.591 167.054 139.605 166.821C139.62 166.589 139.542 166.36 139.389 166.185C134.464 160.581 125.861 159.447 121.174 159.265Z" fill="white"/>
<path d="M136.239 171.849C125.885 164.038 113.008 163.572 107.547 163.78L105.73 165.658C108.859 165.403 123.851 164.703 135.178 173.252C135.364 173.393 135.599 173.454 135.83 173.422C136.061 173.39 136.27 173.267 136.41 173.081C136.551 172.895 136.612 172.66 136.58 172.429C136.548 172.198 136.425 171.989 136.239 171.849Z" fill="white"/>
<path d="M91.5703 206.641C91.5703 206.641 101.172 178.221 128.214 183.381C155.257 188.54 192.25 199.624 192.25 199.624V206.747L91.5703 206.641Z" fill="white" stroke="#4D2E44" stroke-width="1.75792" stroke-linecap="round" stroke-linejoin="round"/>
<path d="M305.082 101.681C304.423 101.316 303.858 100.801 303.433 100.179C303.009 99.5558 302.735 98.8423 302.636 98.0952C302.343 95.5813 304.03 84.7525 306.738 83.2407C309.445 81.7289 321.844 75.0048 324.132 75.1601C326.42 75.3154 327.384 95.2005 305.082 101.681Z" fill="white"/>
<path d="M306.397 84.4506C311.027 68.2454 314.818 64.627 317.001 66.2033C318.978 67.6331 314.95 77.958 313.778 83.3167" fill="white"/>
<path d="M306.397 84.4506C311.027 68.2454 314.818 64.627 317.001 66.2033C318.978 67.6331 314.95 77.958 313.778 83.3167" stroke="#4D2E44" stroke-width="1.75792" stroke-linecap="round" stroke-linejoin="round"/>
<path d="M326.828 80.9203C329.148 77.1524 332.98 77.34 330.979 83.7622C329.028 90.0234 327.58 98.1889 323.918 101.878C320.256 105.566 318.937 107.219 318.937 107.219C318.937 107.219 311.613 134.555 307.455 157.282C301.437 190.149 290.09 196.472 279.481 192.707C268.872 188.942 266.912 174.084 281.4 145.205C295.888 116.325 303.526 99.4986 303.526 99.4986" fill="white"/>
<path d="M326.828 80.9203C329.148 77.1524 332.98 77.34 330.979 83.7622C329.028 90.0234 327.58 98.1889 323.918 101.878C320.256 105.566 318.937 107.219 318.937 107.219C318.937 107.219 311.613 134.555 307.455 157.282C301.437 190.149 290.09 196.472 279.481 192.707C268.872 188.942 266.912 174.084 281.4 145.205C295.888 116.325 303.526 99.4986 303.526 99.4986" stroke="#4D2E44" stroke-width="1.75792" stroke-linecap="round" stroke-linejoin="round"/>
<path d="M303.769 100.017C301.669 98.5962 301.921 90.331 299.562 86.7302C296.632 82.2417 293.767 77.589 299.19 78.2863C303.84 78.887 305.319 82.9741 306.397 84.4391" fill="white"/>
<path d="M303.769 100.017C301.669 98.5962 301.921 90.331 299.562 86.7302C296.632 82.2417 293.767 77.589 299.19 78.2863C303.84 78.887 305.319 82.9741 306.397 84.4391" stroke="#4D2E44" stroke-width="1.75792" stroke-linecap="round" stroke-linejoin="round"/>
<path d="M324.117 87.7936C324.117 87.7936 328.237 77.7588 329.62 73.1179C331.135 68.0375 325.811 67.3226 323.244 74.5974" fill="white"/>
<path d="M324.117 87.7936C324.117 87.7936 328.237 77.7588 329.62 73.1179C331.135 68.0375 325.811 67.3226 323.244 74.5974" stroke="#4D2E44" stroke-width="1.75792" stroke-linecap="round" stroke-linejoin="round"/>
<path d="M319.28 85.1597C319.28 85.1597 327.39 66.7835 323.763 65.1486C320.455 63.6573 317.932 70.3609 313.769 83.3138" fill="white"/>
<path d="M319.28 85.1597C319.28 85.1597 327.39 66.7835 323.763 65.1486C320.455 63.6573 317.932 70.3609 313.769 83.3138" stroke="#4D2E44" stroke-width="1.75792" stroke-linecap="round" stroke-linejoin="round"/>
<path d="M186.633 98.5024L187.77 119.222C187.77 119.222 185.845 130.403 201.376 128.331C216.846 126.266 214.947 117.107 214.947 117.107L210.16 91.3682L186.633 98.5024Z" fill="white" stroke="#4D2E44" stroke-width="1.75792" stroke-linecap="round" stroke-linejoin="round"/>
<path d="M216.107 65.2659C216.107 65.2659 228.12 60.7598 228.589 73.2703C229.057 85.7809 216.107 82.5405 216.107 82.5405" fill="white"/>
<path d="M216.107 65.2659C216.107 65.2659 228.12 60.7598 228.589 73.2703C229.057 85.7809 216.107 82.5405 216.107 82.5405" stroke="#4D2E44" stroke-width="1.75792" stroke-linecap="round" stroke-linejoin="round"/>
<path d="M185.109 45.5918H205.73C208.76 45.5918 211.667 46.7957 213.81 48.9385C215.952 51.0814 217.156 53.9878 217.156 57.0183V81.2308C217.156 87.4814 214.673 93.476 210.253 97.8958C205.834 102.316 199.839 104.799 193.588 104.799C190.493 104.799 187.429 104.189 184.569 103.005C181.71 101.82 179.112 100.084 176.923 97.8958C174.735 95.7073 172.999 93.1092 171.815 90.2498C170.63 87.3904 170.021 84.3258 170.021 81.2308V60.6777C170.021 56.6767 171.61 52.8395 174.439 50.0104C177.268 47.1812 181.105 45.5918 185.106 45.5918H185.109Z" fill="white" stroke="#4D2E44" stroke-width="1.75792" stroke-linecap="round" stroke-linejoin="round"/>
<path d="M222.641 92.4026C222.648 87.2726 222.168 82.1535 221.205 77.1145C221.205 77.0178 221.205 76.9153 221.205 76.8215C221.201 75.9369 220.848 75.0895 220.223 74.464C219.597 73.8384 218.75 73.4853 217.865 73.4814V76.8215L217.953 80.1616C218.631 80.1409 219.286 79.914 219.831 79.5111C220.912 86.2498 223.054 106.343 214.039 123.424C212.383 126.556 210.831 129.451 209.331 132.249C200.834 148.105 195.209 158.58 195.34 167.935C195.34 168.168 195.433 168.391 195.598 168.556C195.763 168.721 195.986 168.814 196.219 168.814C196.452 168.814 196.676 168.721 196.841 168.556C197.006 168.391 197.098 168.168 197.098 167.935C196.972 159.037 202.507 148.721 210.869 133.104C212.372 130.306 213.925 127.409 215.58 124.271C221.498 113.064 222.685 100.759 222.641 92.4026Z" fill="#F7A02C"/>
<path d="M167.729 80.5131C168.141 80.7451 168.598 80.886 169.068 80.9262V74.2812C168.323 74.3492 167.622 74.6654 167.078 75.1791C166.534 75.6929 166.179 76.3744 166.068 77.1144C165.971 77.2591 165.919 77.4294 165.919 77.6037C165.919 78.9397 165.919 110.506 175.294 124.748C184.881 139.339 187.846 147.648 188.505 161.797C188.516 162.023 188.613 162.236 188.777 162.392C188.94 162.548 189.158 162.635 189.384 162.635H189.425C189.658 162.624 189.877 162.521 190.034 162.349C190.191 162.177 190.273 161.95 190.263 161.717C189.586 147.197 186.56 138.689 176.768 123.787C169.3 112.437 167.967 88.7578 167.729 80.5131Z" fill="#F7A02C"/>
<path d="M186.381 67.0942L186.692 86.0945C186.692 86.0945 188.092 88.1161 190.345 83.9967" stroke="#4D2E44" stroke-width="1.75792" stroke-linecap="round" stroke-linejoin="round"/>
<path d="M186.381 90.1348C188.092 92.1359 192.112 91.8078 196.097 89.2031C196.097 89.2031 197.649 94.2923 189.917 95.0629" stroke="#4D2E44" stroke-width="1.75792" stroke-linecap="round" stroke-linejoin="round"/>
<path d="M193.861 60.9736C194.095 60.915 196.6 57.3025 200.447 60.3877" stroke="#4D2E44" stroke-width="1.75792" stroke-linecap="round" stroke-linejoin="round"/>
<path d="M200.447 74.9434C201.252 74.9434 201.904 73.9347 201.904 72.6903C201.904 71.446 201.252 70.4373 200.447 70.4373C199.643 70.4373 198.991 71.446 198.991 72.6903C198.991 73.9347 199.643 74.9434 200.447 74.9434Z" fill="#4D2E44"/>
<path d="M179.147 75.5235C179.951 75.5235 180.603 74.5147 180.603 73.2704C180.603 72.0261 179.951 71.0173 179.147 71.0173C178.343 71.0173 177.691 72.0261 177.691 73.2704C177.691 74.5147 178.343 75.5235 179.147 75.5235Z" fill="#4D2E44"/>
<path d="M174.492 60.8068C174.726 60.757 177.899 56.412 181.096 60.5138" stroke="#4D2E44" stroke-width="1.75792" stroke-linecap="round" stroke-linejoin="round"/>
<path d="M199.463 40.4704C193.758 40.5436 189.428 40.8308 186.832 41.3054C165.863 46.0752 169.253 61.6153 169.253 61.6153C169.253 61.6153 179.507 63.5695 187.855 51.2113C187.855 51.2113 199.319 60.5664 216.274 64.3342C216.547 64.2698 216.86 64.1848 217.153 64.091V64.9495C218.55 64.5784 219.996 64.4271 221.44 64.5012C221.252 58.3749 220.157 50.6546 215.108 45.6709C211.537 42.1316 206.263 40.3796 199.463 40.4704Z" fill="#4D2E44"/>
<path d="M222.325 63.007C221.657 55.278 219.811 39.7644 200.447 39.5681C196.1 39.5242 191.755 39.765 187.439 40.2888" stroke="white" stroke-width="1.75792" stroke-linecap="round" stroke-linejoin="round"/>
<path d="M254.509 27.7138C247.281 7.03178 226.755 -4.60275 208.671 1.72285C193.808 6.92044 185.232 22.6363 186.651 39.5504C189.372 39.07 193.665 38.7858 199.439 38.7125C206.726 38.6188 212.413 40.5378 216.348 44.4199C221.915 49.9251 223.045 58.2929 223.21 64.7913C225.902 65.5209 228.381 67.7212 228.589 73.2704C228.609 73.8329 228.117 78.134 228.237 78.1193C228.219 79.8171 228.68 81.4857 229.567 82.9331C231.583 86.1852 235.694 88.2069 241.791 88.9159H241.893C242.126 88.9295 242.355 88.8499 242.53 88.6947C242.704 88.5395 242.81 88.3213 242.824 88.0882C242.837 87.8551 242.758 87.6261 242.602 87.4517C242.447 87.2772 242.229 87.1716 241.996 87.158C236.473 86.5075 232.799 84.7789 231.076 82.016C230.467 81.0289 230.106 79.9091 230.024 78.7522C231.53 80.5101 234.126 82.4057 238.263 82.4057C239.354 82.3998 240.441 82.281 241.507 82.0512C241.623 82.0317 241.735 81.9888 241.835 81.9251C241.934 81.8614 242.02 81.7782 242.087 81.6806C242.154 81.5829 242.2 81.4728 242.223 81.3568C242.246 81.2408 242.246 81.1213 242.222 81.0055C242.198 80.8896 242.151 80.7798 242.083 80.6827C242.016 80.5855 241.929 80.503 241.829 80.4401C241.729 80.3771 241.617 80.335 241.5 80.3164C241.383 80.2977 241.264 80.3028 241.149 80.3314C235.82 81.4389 232.843 79.4085 231.311 77.5978C232.512 77.3346 233.695 76.999 234.856 76.5928C252.939 70.2819 261.737 48.3928 254.509 27.7138Z" fill="#4D2E44"/>
<path d="M201.731 83.9938C207.653 83.9938 212.454 79.1928 212.454 73.2705C212.454 67.3481 207.653 62.5471 201.731 62.5471C195.808 62.5471 191.007 67.3481 191.007 73.2705C191.007 79.1928 195.808 83.9938 201.731 83.9938Z" stroke="#4D2E44" stroke-width="1.75792" stroke-linecap="round" stroke-linejoin="round"/>
<path d="M183.776 72.9805H190.773" stroke="#4D2E44" stroke-width="1.75792" stroke-linecap="round" stroke-linejoin="round"/>
<path d="M211.106 68.0639L217.156 64.6448" stroke="#4D2E44" stroke-width="1.75792" stroke-linecap="round" stroke-linejoin="round"/>
<path d="M172.704 83.994C178.627 83.994 183.428 79.193 183.428 73.2707C183.428 67.3484 178.627 62.5474 172.704 62.5474C166.782 62.5474 161.981 67.3484 161.981 73.2707C161.981 79.193 166.782 83.994 172.704 83.994Z" stroke="#4D2E44" stroke-width="1.75792" stroke-linecap="round" stroke-linejoin="round"/>
<path d="M246.449 195.68H240.358L237.364 151.36C237.242 149.84 236.558 148.42 235.445 147.378C234.332 146.335 232.87 145.745 231.346 145.723H146.441C145.715 145.713 144.995 145.855 144.327 146.139C143.659 146.424 143.058 146.846 142.563 147.377C142.068 147.908 141.69 148.536 141.452 149.222C141.215 149.909 141.124 150.637 141.185 151.36L144.498 200.427C144.619 201.947 145.303 203.368 146.416 204.41C147.529 205.453 148.991 206.042 150.516 206.064L246.449 205.941C246.866 205.941 247.279 205.859 247.665 205.699C248.05 205.54 248.4 205.306 248.695 205.011C248.99 204.716 249.224 204.366 249.383 203.98C249.543 203.595 249.625 203.182 249.625 202.765V198.856C249.625 198.439 249.543 198.026 249.383 197.641C249.224 197.256 248.99 196.906 248.695 196.611C248.4 196.316 248.05 196.082 247.665 195.922C247.279 195.763 246.866 195.68 246.449 195.68Z" fill="#F7A02C"/>
<path d="M194.901 175.031C193.684 173.769 192.105 172.914 190.383 172.584C190.662 172.184 190.832 171.717 190.875 171.231C190.943 170.468 190.721 169.709 190.253 169.103C189.786 168.497 189.107 168.089 188.353 167.961C188.32 167.961 188.285 167.961 188.253 167.961C187.925 166.751 187.307 164.77 186.598 163.924C186.468 163.766 186.288 163.656 186.088 163.613C185.889 163.569 185.68 163.594 185.496 163.683C185.416 163.729 185.347 163.792 185.296 163.868C185.245 163.945 185.213 164.032 185.202 164.123C185.19 164.215 185.201 164.307 185.232 164.394C185.264 164.48 185.315 164.558 185.382 164.621C185.848 165.178 186.416 166.912 186.771 168.234C186.364 168.45 186.019 168.765 185.768 169.151C185.517 169.537 185.368 169.981 185.335 170.44C185.301 170.87 185.357 171.302 185.5 171.709C185.644 172.116 185.871 172.488 186.167 172.801C185.646 172.966 185.148 173.194 184.682 173.478C181.629 175.374 181.254 179.147 183.844 181.904C186.434 184.661 191.01 185.362 194.063 183.466C197.116 181.57 197.494 177.788 194.901 175.031Z" fill="white"/>
<path d="M193.615 163.78C193.615 163.78 189.22 162.901 188.634 166.561C188.646 166.566 192.1 167.806 193.615 163.78Z" fill="white"/>
<path d="M0.878906 206.925H358.051" stroke="#4D2E44" stroke-width="1.75792" stroke-linecap="round" stroke-linejoin="round"/>
</g>
<defs>
<clipPath id="clip0">
<rect width="358.93" height="207.804" fill="white"/>
</clipPath>
</defs>
</svg>
