<svg width="107" height="91" viewBox="0 0 107 91" fill="none" xmlns="http://www.w3.org/2000/svg">
<path d="M60 63.6875L33.5 63.6875C18.8645 63.6875 7 51.823 7 37.1875L7 10.6875" stroke="#22215B" stroke-width="6.625" stroke-linecap="round" stroke-linejoin="round" stroke-dasharray="9.94 13.25"/>
<path fill-rule="evenodd" clip-rule="evenodd" d="M75.7173 79.2798C74.4237 80.5734 72.3263 80.5734 71.0327 79.2798C69.7391 77.9862 69.7391 75.8888 71.0327 74.5952L78.6279 67L76.6875 67C74.8581 67 73.375 65.5169 73.375 63.6875C73.375 61.8581 74.8581 60.375 76.6875 60.375L78.6279 60.375L71.0327 52.7798C69.7391 51.4862 69.7391 49.3888 71.0327 48.0952C72.3263 46.8016 74.4237 46.8016 75.7173 48.0952L87.7961 60.1741C89.7366 62.1145 89.7366 65.2605 87.7961 67.2009L75.7173 79.2798Z" fill="#22215B"/>
</svg>
