<svg width="107" height="91" viewBox="0 0 107 91" fill="none" xmlns="http://www.w3.org/2000/svg">
<path d="M60 27.3125L33.5 27.3125C18.8645 27.3125 7 39.177 7 53.8125L7 80.3125" stroke="#22215B" stroke-width="6.625" stroke-linecap="round" stroke-linejoin="round" stroke-dasharray="9.94 13.25"/>
<path fill-rule="evenodd" clip-rule="evenodd" d="M75.7173 11.7202C74.4237 10.4266 72.3263 10.4266 71.0327 11.7202C69.7391 13.0138 69.7391 15.1112 71.0327 16.4048L78.6279 24L76.6875 24C74.8581 24 73.375 25.4831 73.375 27.3125C73.375 29.1419 74.8581 30.625 76.6875 30.625L78.6279 30.625L71.0327 38.2202C69.7391 39.5138 69.7391 41.6112 71.0327 42.9048C72.3263 44.1984 74.4237 44.1984 75.7173 42.9048L87.7961 30.8259C89.7366 28.8855 89.7366 25.7395 87.7961 23.7991L75.7173 11.7202Z" fill="#22215B"/>
</svg>
