<svg width="418" height="209" viewBox="0 0 418 209" fill="none" xmlns="http://www.w3.org/2000/svg">
<path d="M113.519 179.658C114.607 180.179 115.468 180.927 116.103 181.902C116.76 182.877 117.089 183.999 117.089 185.268C117.089 187.172 116.42 188.77 115.083 190.062C113.746 191.354 112.114 192 110.187 192H99.9191V168.2H109.439C111.298 168.2 112.873 168.823 114.165 170.07C115.457 171.317 116.103 172.858 116.103 174.694C116.103 176.802 115.242 178.457 113.519 179.658ZM109.439 171.158H103.081V178.434H109.439C110.436 178.434 111.275 178.083 111.955 177.38C112.635 176.677 112.975 175.816 112.975 174.796C112.975 173.799 112.624 172.949 111.921 172.246C111.241 171.521 110.414 171.158 109.439 171.158ZM110.187 189.042C111.252 189.042 112.148 188.668 112.873 187.92C113.598 187.172 113.961 186.254 113.961 185.166C113.961 184.101 113.587 183.194 112.839 182.446C112.114 181.698 111.23 181.324 110.187 181.324H103.081V189.042H110.187ZM134.979 189.858C133.233 191.581 131.114 192.442 128.621 192.442C126.127 192.442 124.008 191.581 122.263 189.858C120.54 188.135 119.679 186.016 119.679 183.5C119.679 180.984 120.54 178.865 122.263 177.142C124.008 175.419 126.127 174.558 128.621 174.558C131.114 174.558 133.233 175.419 134.979 177.142C136.724 178.865 137.597 180.984 137.597 183.5C137.597 186.016 136.724 188.135 134.979 189.858ZM128.621 189.552C130.321 189.552 131.749 188.974 132.905 187.818C134.061 186.662 134.639 185.223 134.639 183.5C134.639 181.777 134.061 180.338 132.905 179.182C131.749 178.026 130.321 177.448 128.621 177.448C126.943 177.448 125.527 178.026 124.371 179.182C123.215 180.338 122.637 181.777 122.637 183.5C122.637 185.223 123.215 186.662 124.371 187.818C125.527 188.974 126.943 189.552 128.621 189.552ZM155.432 189.858C153.687 191.581 151.567 192.442 149.074 192.442C146.581 192.442 144.461 191.581 142.716 189.858C140.993 188.135 140.132 186.016 140.132 183.5C140.132 180.984 140.993 178.865 142.716 177.142C144.461 175.419 146.581 174.558 149.074 174.558C151.567 174.558 153.687 175.419 155.432 177.142C157.177 178.865 158.05 180.984 158.05 183.5C158.05 186.016 157.177 188.135 155.432 189.858ZM149.074 189.552C150.774 189.552 152.202 188.974 153.358 187.818C154.514 186.662 155.092 185.223 155.092 183.5C155.092 181.777 154.514 180.338 153.358 179.182C152.202 178.026 150.774 177.448 149.074 177.448C147.397 177.448 145.98 178.026 144.824 179.182C143.668 180.338 143.09 181.777 143.09 183.5C143.09 185.223 143.668 186.662 144.824 187.818C145.98 188.974 147.397 189.552 149.074 189.552ZM175.919 192H172.247L164.495 183.942V192H161.537V168.2H164.495V182.514L171.839 175H175.647L167.521 183.228L175.919 192ZM201.246 175H204.204V192H201.246V189.076C199.772 191.32 197.63 192.442 194.82 192.442C192.44 192.442 190.411 191.581 188.734 189.858C187.056 188.113 186.218 185.993 186.218 183.5C186.218 181.007 187.056 178.899 188.734 177.176C190.411 175.431 192.44 174.558 194.82 174.558C197.63 174.558 199.772 175.68 201.246 177.924V175ZM195.194 189.586C196.916 189.586 198.356 189.008 199.512 187.852C200.668 186.673 201.246 185.223 201.246 183.5C201.246 181.777 200.668 180.338 199.512 179.182C198.356 178.003 196.916 177.414 195.194 177.414C193.494 177.414 192.066 178.003 190.91 179.182C189.754 180.338 189.176 181.777 189.176 183.5C189.176 185.223 189.754 186.673 190.91 187.852C192.066 189.008 193.494 189.586 195.194 189.586ZM228.677 192.442C225.073 192.442 222.093 191.252 219.735 188.872C217.401 186.492 216.233 183.568 216.233 180.1C216.233 176.632 217.401 173.708 219.735 171.328C222.093 168.948 225.073 167.758 228.677 167.758C230.853 167.758 232.848 168.279 234.661 169.322C236.497 170.365 237.925 171.77 238.945 173.538L236.191 175.136C235.511 173.821 234.491 172.779 233.131 172.008C231.794 171.215 230.309 170.818 228.677 170.818C225.935 170.818 223.691 171.702 221.945 173.47C220.223 175.238 219.361 177.448 219.361 180.1C219.361 182.729 220.223 184.928 221.945 186.696C223.691 188.464 225.935 189.348 228.677 189.348C230.309 189.348 231.794 188.963 233.131 188.192C234.491 187.399 235.511 186.356 236.191 185.064L238.945 186.628C237.948 188.396 236.531 189.813 234.695 190.878C232.859 191.921 230.853 192.442 228.677 192.442ZM256.502 189.858C254.757 191.581 252.637 192.442 250.144 192.442C247.651 192.442 245.531 191.581 243.786 189.858C242.063 188.135 241.202 186.016 241.202 183.5C241.202 180.984 242.063 178.865 243.786 177.142C245.531 175.419 247.651 174.558 250.144 174.558C252.637 174.558 254.757 175.419 256.502 177.142C258.247 178.865 259.12 180.984 259.12 183.5C259.12 186.016 258.247 188.135 256.502 189.858ZM250.144 189.552C251.844 189.552 253.272 188.974 254.428 187.818C255.584 186.662 256.162 185.223 256.162 183.5C256.162 181.777 255.584 180.338 254.428 179.182C253.272 178.026 251.844 177.448 250.144 177.448C248.467 177.448 247.05 178.026 245.894 179.182C244.738 180.338 244.16 181.777 244.16 183.5C244.16 185.223 244.738 186.662 245.894 187.818C247.05 188.974 248.467 189.552 250.144 189.552ZM276.683 175H279.641V192H276.683V189.076C275.21 191.32 273.068 192.442 270.257 192.442C267.877 192.442 265.849 191.581 264.171 189.858C262.494 188.113 261.655 185.993 261.655 183.5C261.655 181.007 262.494 178.899 264.171 177.176C265.849 175.431 267.877 174.558 270.257 174.558C273.068 174.558 275.21 175.68 276.683 177.924V175ZM270.631 189.586C272.354 189.586 273.793 189.008 274.949 187.852C276.105 186.673 276.683 185.223 276.683 183.5C276.683 181.777 276.105 180.338 274.949 179.182C273.793 178.003 272.354 177.414 270.631 177.414C268.931 177.414 267.503 178.003 266.347 179.182C265.191 180.338 264.613 181.777 264.613 183.5C264.613 185.223 265.191 186.673 266.347 187.852C267.503 189.008 268.931 189.586 270.631 189.586ZM292.113 192.442C289.552 192.442 287.421 191.592 285.721 189.892C284.021 188.169 283.171 186.039 283.171 183.5C283.171 180.961 284.021 178.842 285.721 177.142C287.421 175.419 289.552 174.558 292.113 174.558C293.79 174.558 295.298 174.966 296.635 175.782C297.972 176.575 298.97 177.652 299.627 179.012L297.145 180.44C296.714 179.533 296.046 178.808 295.139 178.264C294.255 177.72 293.246 177.448 292.113 177.448C290.413 177.448 288.985 178.026 287.829 179.182C286.696 180.338 286.129 181.777 286.129 183.5C286.129 185.2 286.696 186.628 287.829 187.784C288.985 188.94 290.413 189.518 292.113 189.518C293.246 189.518 294.266 189.257 295.173 188.736C296.08 188.192 296.771 187.467 297.247 186.56L299.763 188.022C299.038 189.359 297.995 190.436 296.635 191.252C295.275 192.045 293.768 192.442 292.113 192.442ZM311.149 174.558C313.144 174.558 314.742 175.193 315.943 176.462C317.145 177.709 317.745 179.409 317.745 181.562V192H314.787V181.732C314.787 180.349 314.413 179.284 313.665 178.536C312.917 177.765 311.886 177.38 310.571 177.38C309.098 177.38 307.908 177.845 307.001 178.774C306.095 179.681 305.641 181.086 305.641 182.99V192H302.683V168.2H305.641V177.448C306.843 175.521 308.679 174.558 311.149 174.558Z" fill="black"/>
<g clip-path="url(#clip0)">
<path d="M21.592 90V80.112L44.536 56.496C49.656 51.12 52.216 46.64 52.216 43.056C52.216 40.432 51.384 38.32 49.72 36.72C48.12 35.12 46.04 34.32 43.48 34.32C38.424 34.32 34.68 36.944 32.248 42.192L21.112 35.664C23.224 31.056 26.264 27.536 30.232 25.104C34.2 22.672 38.552 21.456 43.288 21.456C49.368 21.456 54.584 23.376 58.936 27.216C63.288 30.992 65.464 36.112 65.464 42.576C65.464 49.552 61.784 56.72 54.424 64.08L41.272 77.232H66.52V90H21.592Z" fill="#F7A32C"/>
<path d="M286.097 67.5608L288.363 62.4026" stroke="#F7A02C" stroke-width="1.36101" stroke-linecap="round" stroke-linejoin="round"/>
<path d="M282.245 98.7008C283.531 89.8248 284.926 80.1865 285.729 74.6562" stroke="#F7A02C" stroke-width="1.36101" stroke-linecap="round" stroke-linejoin="round"/>
<path d="M298.917 78.3877C296.111 86.8373 290.37 104.095 289.315 107.371C288.408 110.181 287.158 113.223 284.763 114.452" stroke="#F7A02C" stroke-width="1.36101" stroke-linecap="round" stroke-linejoin="round"/>
<path d="M302.048 45.5239C302.955 42.7077 303.007 39.6857 302.197 36.8401C301.386 33.9945 299.75 31.453 297.496 29.5371C295.241 27.6212 292.469 26.4169 289.53 26.0764C286.591 25.736 283.617 26.2747 280.984 27.6245C278.351 28.9742 276.178 31.0744 274.738 33.6594C273.299 36.2445 272.658 39.1982 272.898 42.1473C273.137 45.0963 274.246 47.9081 276.083 50.2271C277.92 52.5462 280.404 54.2683 283.22 55.1757C284.708 55.6562 286.262 55.9019 287.825 55.9039C288.732 55.904 289.636 55.8197 290.527 55.6521L288.308 62.5093L295.259 64.7505L302.048 45.5239ZM285.856 46.9711C284.418 46.5072 283.193 45.5451 282.402 44.258C281.611 42.9709 281.305 41.4435 281.54 39.951C281.775 38.4585 282.535 37.099 283.684 36.1175C284.833 35.1359 286.294 34.5967 287.805 34.5972C288.803 34.5971 289.788 34.8328 290.678 35.2851C291.568 35.7374 292.339 36.3935 292.927 37.2C293.516 38.0066 293.905 38.9407 294.065 39.9264C294.224 40.912 294.148 41.9214 293.843 42.8722V42.8722C293.327 44.4714 292.196 45.8 290.7 46.5657C289.204 47.3314 287.465 47.4715 285.865 46.9552L285.856 46.9711Z" stroke="#F7A02C" stroke-width="1.36101" stroke-linecap="round" stroke-linejoin="round"/>
<path d="M308.429 62.8766C310.36 64.0452 312.53 64.7616 314.778 64.9721C317.025 65.1825 319.291 64.8816 321.406 64.0918C323.52 63.3021 325.429 62.044 326.988 60.4119C328.547 58.7797 329.717 56.8159 330.409 54.6674V54.6674C331.059 52.6516 331.274 50.5207 331.04 48.4156C330.805 46.3105 330.126 44.2792 329.047 42.4562C327.969 40.6332 326.515 39.06 324.783 37.8408C323.051 36.6215 321.08 35.7839 319 35.3835C316.92 34.9831 314.779 35.0289 312.718 35.518C310.657 36.007 308.723 36.9282 307.045 38.2204C305.367 39.5127 303.982 41.1466 302.983 43.0141C301.983 44.8816 301.391 46.94 301.247 49.0532L296.1 65.0225L299.462 66.1068L308.429 62.8766ZM322.204 52.0248C321.82 53.222 321.09 54.2782 320.105 55.0598C319.12 55.8413 317.925 56.313 316.672 56.415C315.419 56.5171 314.164 56.2449 313.065 55.633C311.967 55.021 311.075 54.0969 310.502 52.9776C309.93 51.8583 309.702 50.5942 309.848 49.3455C309.995 48.0968 310.508 46.9195 311.324 45.9629C312.14 45.0063 313.221 44.3134 314.432 43.9719C315.642 43.6304 316.926 43.6558 318.121 44.0447C319.719 44.5644 321.046 45.6959 321.811 47.1915C322.576 48.6872 322.718 50.4251 322.204 52.0248V52.0248Z" stroke="#F7A02C" stroke-width="1.36101" stroke-linecap="round" stroke-linejoin="round"/>
<path d="M283.66 105.833C288.546 96.6412 295.823 83.0219 298.917 77.2354" stroke="#F7A02C" stroke-width="1.36101" stroke-linecap="round" stroke-linejoin="round"/>
<path d="M284.985 74.3728L280.675 87.7289" stroke="#F7A02C" stroke-width="1.36101" stroke-linecap="round" stroke-linejoin="round"/>
<path d="M299.906 65.8733L296.665 64.5554C296.318 65.2563 294.671 66.758 292.555 67.7311" stroke="#F7A02C" stroke-width="1.36101" stroke-linecap="round" stroke-linejoin="round"/>
<path d="M294.941 74.5271C294.915 74.7072 294.874 74.8848 294.818 75.0579C294.589 75.7709 294.12 76.3827 293.492 76.7894C292.863 77.1961 292.112 77.3726 291.368 77.289C290.624 77.2053 289.931 76.8667 289.408 76.3307C288.885 75.7946 288.564 75.094 288.499 74.3479" stroke="#F7A02C" stroke-width="1.36101" stroke-linecap="round" stroke-linejoin="round"/>
<path d="M299.759 67.8421L300.56 57.199L308.429 57.7797L307.671 67.8421" stroke="#F7A02C" stroke-width="1.36101" stroke-linecap="round" stroke-linejoin="round"/>
<path d="M295.989 117.948L299.271 74.3411" stroke="#F7A02C" stroke-width="1.36101" stroke-linecap="round" stroke-linejoin="round"/>
<path d="M307.015 74.5337L303.76 117.825" stroke="#F7A02C" stroke-width="1.36101" stroke-linecap="round" stroke-linejoin="round"/>
<path d="M299.464 60.6515L308.844 61.357L310.853 34.6561C311.441 26.8326 310.13 25.1948 306.675 24.9339C303.22 24.6731 301.959 27.4858 301.369 35.3117L299.464 60.6515Z" fill="#F7A02C"/>
<path d="M306.165 31.2808L311.979 31.7186C313.258 31.8138 314.247 32.8777 313.941 36.8836L312.457 56.6183" stroke="#F7A02C" stroke-width="1.36101" stroke-linecap="round" stroke-linejoin="round"/>
<path d="M312.457 58.0905C313.274 58.0905 313.936 57.4284 313.936 56.6115C313.936 55.7947 313.274 55.1326 312.457 55.1326C311.64 55.1326 310.978 55.7947 310.978 56.6115C310.978 57.4284 311.64 58.0905 312.457 58.0905Z" fill="#F7A02C"/>
<path d="M277.658 67.8437L276.297 58.6092C275.837 55.5379 274.792 52.5834 273.219 49.9055L266.278 38.0465C266.156 37.8308 265.971 37.6571 265.748 37.5482C265.525 37.4393 265.275 37.4003 265.03 37.4364C264.784 37.4725 264.556 37.5819 264.374 37.7503C264.192 37.9187 264.065 38.1382 264.01 38.38L260.818 51.7474C260.097 54.7695 259.961 57.9017 260.417 60.9751L261.44 67.8527" stroke="#F7A02C" stroke-width="1.36101" stroke-linecap="round" stroke-linejoin="round"/>
<path d="M284.985 117.69C284.992 117.363 284.971 117.037 284.922 116.714L278.625 74.3413" stroke="#F7A02C" stroke-width="1.36101" stroke-linecap="round" stroke-linejoin="round"/>
<path d="M262.444 74.5339L268.857 117.689" stroke="#F7A02C" stroke-width="1.36101" stroke-linecap="round" stroke-linejoin="round"/>
<path d="M271.688 47.2796L266.278 38.036C266.156 37.8203 265.971 37.6466 265.748 37.5377C265.525 37.4288 265.275 37.3899 265.03 37.4259C264.784 37.462 264.556 37.5714 264.374 37.7398C264.191 37.9082 264.065 38.1277 264.01 38.3695L261.542 48.754C264.232 47.7582 268.986 46.3019 271.688 47.2796Z" fill="#F7A02C"/>
<path d="M275.978 56.936C275.871 56.4528 275.751 55.9742 275.615 55.5001C273.346 55.2438 270.511 55.4865 268.519 57.6414C265.584 55.9243 262.302 56.9949 260.174 58.0951C260.19 58.5987 260.222 59.1045 260.267 59.6081C262.122 58.5465 265.362 57.2308 268.022 58.9276L269.345 67.8354L270.749 68.0169L269.368 58.728C271.117 56.691 273.902 56.6207 275.978 56.936Z" fill="#F7A02C"/>
<path d="M271.688 74.7131H270.311L276.694 117.658L278.073 117.689L271.688 74.7131Z" fill="#F7A02C"/>
<path d="M266.773 110.639L287.068 85.0337" stroke="#4D2E44" stroke-width="1.36101" stroke-linecap="round" stroke-linejoin="round"/>
<path d="M269.789 117.768L287.687 95.0894" stroke="#4D2E44" stroke-width="1.36101" stroke-linecap="round" stroke-linejoin="round"/>
<path d="M278.073 117.689L289.261 103.709" stroke="#4D2E44" stroke-width="1.36101" stroke-linecap="round" stroke-linejoin="round"/>
<path d="M285.579 117.904L288.76 113.871" stroke="#4D2E44" stroke-width="1.36101" stroke-linecap="round" stroke-linejoin="round"/>
<path d="M264.264 102.911L286.04 75.906" stroke="#4D2E44" stroke-width="1.36101" stroke-linecap="round" stroke-linejoin="round"/>
<path d="M282.007 117.689L260.736 92.0522" stroke="#4D2E44" stroke-width="1.36101" stroke-linecap="round" stroke-linejoin="round"/>
<path d="M273.14 117.768L266.773 110.639" stroke="#4D2E44" stroke-width="1.36101" stroke-linecap="round" stroke-linejoin="round"/>
<path d="M286.761 84.4031L278.616 74.5334" stroke="#4D2E44" stroke-width="1.36101" stroke-linecap="round" stroke-linejoin="round"/>
<path d="M287.421 93.9258L271.262 74.6448" stroke="#4D2E44" stroke-width="1.36101" stroke-linecap="round" stroke-linejoin="round"/>
<path d="M288.844 105.406L263.229 74.5334" stroke="#4D2E44" stroke-width="1.36101" stroke-linecap="round" stroke-linejoin="round"/>
<path d="M288.712 114.852L255.351 74.6453" stroke="#4D2E44" stroke-width="1.36101" stroke-linecap="round" stroke-linejoin="round"/>
<path d="M257.776 81.958L263.56 74.6267" stroke="#4D2E44" stroke-width="1.36101" stroke-linecap="round" stroke-linejoin="round"/>
<path d="M259.616 88.6019L270.867 74.343" stroke="#4D2E44" stroke-width="1.36101" stroke-linecap="round" stroke-linejoin="round"/>
<path d="M261.948 95.7789L278.838 74.5334" stroke="#4D2E44" stroke-width="1.36101" stroke-linecap="round" stroke-linejoin="round"/>
<path d="M317.255 118.1L287.095 80.8306" stroke="#4D2E44" stroke-width="1.36101" stroke-linecap="round" stroke-linejoin="round"/>
<path d="M308.49 117.948L287.755 92.3242" stroke="#4D2E44" stroke-width="1.36101" stroke-linecap="round" stroke-linejoin="round"/>
<path d="M299.997 117.904L288.195 103.319" stroke="#4D2E44" stroke-width="1.36101" stroke-linecap="round" stroke-linejoin="round"/>
<path d="M292.439 117.948L288.821 113.474" stroke="#4D2E44" stroke-width="1.36101" stroke-linecap="round" stroke-linejoin="round"/>
<path d="M321.959 112.832L290.295 74.5334" stroke="#4D2E44" stroke-width="1.36101" stroke-linecap="round" stroke-linejoin="round"/>
<path d="M295.038 117.689L326.526 79.0159" stroke="#4D2E44" stroke-width="1.36101" stroke-linecap="round" stroke-linejoin="round"/>
<path d="M303.76 117.825L324.795 91.8298" stroke="#4D2E44" stroke-width="1.36101" stroke-linecap="round" stroke-linejoin="round"/>
<path d="M311.994 118.1L322.758 104.8" stroke="#4D2E44" stroke-width="1.36101" stroke-linecap="round" stroke-linejoin="round"/>
<path d="M319.589 118.1L321.58 115.638" stroke="#4D2E44" stroke-width="1.36101" stroke-linecap="round" stroke-linejoin="round"/>
<path d="M287.249 87.969L299.906 74.343" stroke="#4D2E44" stroke-width="1.36101" stroke-linecap="round" stroke-linejoin="round"/>
<path d="M287.095 80.4086L292.607 74.8579" stroke="#4D2E44" stroke-width="1.36101" stroke-linecap="round" stroke-linejoin="round"/>
<path d="M287.755 96.1828L306.108 74.343" stroke="#4D2E44" stroke-width="1.36101" stroke-linecap="round" stroke-linejoin="round"/>
<path d="M288.633 105.009L313.38 74.5334" stroke="#4D2E44" stroke-width="1.36101" stroke-linecap="round" stroke-linejoin="round"/>
<path d="M288.88 114.452L323.023 74.6267" stroke="#4D2E44" stroke-width="1.36101" stroke-linecap="round" stroke-linejoin="round"/>
<path d="M324.69 87.7059L313.893 74.3657" stroke="#4D2E44" stroke-width="1.36101" stroke-linecap="round" stroke-linejoin="round"/>
<path d="M326.117 80.4088L321.438 74.6267" stroke="#4D2E44" stroke-width="1.36101" stroke-linecap="round" stroke-linejoin="round"/>
<path d="M324.185 95.9197L306.741 74.3657" stroke="#4D2E44" stroke-width="1.36101" stroke-linecap="round" stroke-linejoin="round"/>
<path d="M322.758 104.068L298.985 74.6924" stroke="#4D2E44" stroke-width="1.36101" stroke-linecap="round" stroke-linejoin="round"/>
<path d="M327.154 74.3613L321.27 117.948" stroke="#4D2E44" stroke-width="1.36101" stroke-linecap="round" stroke-linejoin="round"/>
<path d="M286.428 74.6267L289.068 117.512" stroke="#4D2E44" stroke-width="1.36101" stroke-linecap="round" stroke-linejoin="round"/>
<path d="M253.124 68.5521C253.703 68.0896 254.424 67.8391 255.165 67.8421H331.008C331.436 67.8421 331.86 67.9264 332.255 68.0902C332.651 68.254 333.01 68.4941 333.313 68.7968C333.615 69.0995 333.856 69.4588 334.019 69.8543C334.183 70.2498 334.267 70.6736 334.267 71.1017V71.1017C334.267 71.9662 333.924 72.7953 333.313 73.4066C332.701 74.0179 331.872 74.3613 331.008 74.3613H285.641" stroke="#4D2E44" stroke-width="1.36101" stroke-linecap="round" stroke-linejoin="round"/>
<path d="M285.645 74.3613H255.158" stroke="#4D2E44" stroke-width="1.36101" stroke-linecap="round" stroke-linejoin="round"/>
<path d="M71.2264 76.2554C71.1747 79.8071 70.499 83.3221 69.2302 86.6399L71.2264 76.2554Z" fill="white"/>
<path d="M71.2264 76.2554C71.1747 79.8071 70.499 83.3221 69.2302 86.6399" stroke="#4D2E44" stroke-width="1.36101" stroke-linecap="round" stroke-linejoin="round"/>
<path d="M71.4327 79.8574L90.8136 83.4346" stroke="#4D2E44" stroke-width="1.36101" stroke-linecap="round" stroke-linejoin="round"/>
<path d="M92.3039 87.7196L70.7159 83.7341" stroke="#4D2E44" stroke-width="1.36101" stroke-linecap="round" stroke-linejoin="round"/>
<path d="M91.6892 85.6009L71.0743 81.7969" stroke="#4D2E44" stroke-width="1.36101" stroke-linecap="round" stroke-linejoin="round"/>
<path d="M90.0539 79.7306L68.0508 75.668C66.4902 75.3799 65.4422 73.9758 65.7076 72.5331C65.973 71.0904 67.4542 70.1536 69.0149 70.4417L88.339 74.0076" fill="white"/>
<path d="M90.0539 79.7306L68.0508 75.668C66.4902 75.3799 65.4422 73.9758 65.7076 72.5331C65.973 71.0904 67.4542 70.1536 69.0149 70.4417L88.339 74.0076" stroke="#4D2E44" stroke-width="1.36101" stroke-linecap="round" stroke-linejoin="round"/>
<path d="M94.8037 97.0314L65.1018 91.5488C63.5412 91.2629 62.4932 89.8588 62.7586 88.4162C63.024 86.9735 64.5053 86.0344 66.0659 86.3225L93.141 91.3129" fill="white"/>
<path d="M94.8037 97.0314L65.1018 91.5488C63.5412 91.2629 62.4932 89.8588 62.7586 88.4162C63.024 86.9735 64.5053 86.0344 66.0659 86.3225L93.141 91.3129" stroke="#4D2E44" stroke-width="1.36101" stroke-linecap="round" stroke-linejoin="round"/>
<path d="M39.8526 113.919C35.6516 115.231 25.689 119.193 30.4933 126.169" stroke="#4D2E44" stroke-width="3.40254" stroke-linecap="round" stroke-linejoin="round"/>
<path d="M60.37 109.634L100.128 115.525" stroke="#F7A02C" stroke-width="1.36101" stroke-linecap="round" stroke-linejoin="round"/>
<path d="M58.4873 105.853L99.3314 111.903" stroke="#F7A02C" stroke-width="1.36101" stroke-linecap="round" stroke-linejoin="round"/>
<path d="M60.3201 113.368L101.371 119.449" stroke="#F7A02C" stroke-width="1.36101" stroke-linecap="round" stroke-linejoin="round"/>
<path d="M59.2721 117.156L103.258 123.673" stroke="#F7A02C" stroke-width="1.36101" stroke-linecap="round" stroke-linejoin="round"/>
<path d="M56.9741 120.114L88.4816 124.785" stroke="#F7A02C" stroke-width="1.36101" stroke-linecap="round" stroke-linejoin="round"/>
<path d="M48.3159 101.169C52.6825 101.72 60.4017 103.748 60.379 112.236C60.3586 120.504 52.9411 123.161 48.3159 123.446" stroke="#F7A02C" stroke-width="1.36101" stroke-linecap="round" stroke-linejoin="round"/>
<path d="M79.3811 124.792L48.3069 125.093V98.0952L97.7253 107.754" stroke="#F7A02C" stroke-width="1.36101" stroke-linecap="round" stroke-linejoin="round"/>
<path d="M95.0554 98.2427L45.7232 89.2146C45.1351 89.108 44.5308 89.1319 43.953 89.2844C43.3751 89.4369 42.8378 89.7144 42.379 90.0974C41.9201 90.4803 41.5509 90.9593 41.2974 91.5005C41.0439 92.0417 40.9124 92.632 40.912 93.2296V130.719" stroke="#F7A02C" stroke-width="1.36101" stroke-linecap="round" stroke-linejoin="round"/>
<path d="M82.795 18.2944L232.586 16.9152C233.671 16.9054 234.732 17.2419 235.613 17.8758C236.494 18.5097 237.15 19.4081 237.486 20.4403L269.093 117.764L382.246 118.651C382.246 118.651 381.792 133.779 371.956 133.779H105.687L75.1257 28.5996C74.7775 27.4045 74.7111 26.145 74.9316 24.92C75.1522 23.6949 75.6537 22.5377 76.3969 21.5392C77.14 20.5406 78.1045 19.7279 79.2147 19.1649C80.3248 18.6019 81.5503 18.304 82.795 18.2944Z" stroke="#4D2E44" stroke-width="1.36101" stroke-linecap="round" stroke-linejoin="round"/>
<path d="M231.522 24.589L259.368 108.031C259.484 108.376 259.515 108.744 259.46 109.104C259.405 109.464 259.265 109.805 259.052 110.1C258.838 110.396 258.558 110.636 258.234 110.801C257.909 110.967 257.55 111.053 257.186 111.052L117.353 110.768C116.859 110.767 116.379 110.606 115.984 110.31C115.589 110.014 115.299 109.599 115.158 109.126L90.5549 26.2517C90.4529 25.9095 90.4321 25.5483 90.4943 25.1967C90.5565 24.8451 90.6999 24.5129 90.9131 24.2265C91.1264 23.9401 91.4036 23.7075 91.7226 23.5471C92.0416 23.3868 92.3936 23.3031 92.7507 23.3028L229.331 23.0215C229.815 23.0182 230.287 23.168 230.681 23.4496C231.074 23.7311 231.369 24.1299 231.522 24.589V24.589Z" stroke="#F7A02C" stroke-width="1.36101" stroke-linecap="round" stroke-linejoin="round"/>
<path d="M151.228 56.5981C152.91 54.6207 152.056 51.1328 149.322 48.8075C146.588 46.4822 143.008 46.2001 141.327 48.1775C139.645 50.1549 140.498 53.6428 143.232 55.9681C145.967 58.2934 149.546 58.5755 151.228 56.5981Z" stroke="#F7A02C" stroke-width="1.36101" stroke-linecap="round" stroke-linejoin="round"/>
<path d="M139.116 69.0828C138.395 63.2077 142.149 58.7844 148.375 58.7844C154.602 58.7844 161.217 63.1964 164.324 69.0578" stroke="#F7A02C" stroke-width="1.36101" stroke-linecap="round" stroke-linejoin="round"/>
<path d="M199.795 86.5969C201.476 84.6195 200.623 81.1315 197.889 78.8062C195.155 76.481 191.575 76.1989 189.894 78.1763C188.212 80.1536 189.065 83.6416 191.799 85.9669C194.533 88.2922 198.113 88.5742 199.795 86.5969Z" stroke="#F7A02C" stroke-width="1.36101" stroke-linecap="round" stroke-linejoin="round"/>
<path d="M187.693 99.1543C186.933 93.243 190.692 88.7856 196.943 88.7856C203.195 88.7856 209.927 93.2906 212.992 99.2496" stroke="#F7A02C" stroke-width="1.36101" stroke-linecap="round" stroke-linejoin="round"/>
<path d="M192.893 50.3876C194.575 48.4103 193.722 44.9223 190.988 42.597C188.254 40.2717 184.674 39.9897 182.992 41.967C181.311 43.9444 182.164 47.4324 184.898 49.7577C187.632 52.083 191.212 52.365 192.893 50.3876Z" stroke="#F7A02C" stroke-width="1.36101" stroke-linecap="round" stroke-linejoin="round"/>
<path d="M180.799 63.017C179.999 57.0693 183.764 52.5825 190.041 52.5825C196.351 52.5825 203.081 57.1192 206.128 63.1236" stroke="#F7A02C" stroke-width="1.36101" stroke-linecap="round" stroke-linejoin="round"/>
<path d="M161.756 46.5194L169.215 69.4457H134.475L126.071 43.6182H152.724" stroke="#F7A02C" stroke-width="1.36101" stroke-linecap="round" stroke-linejoin="round"/>
<path d="M206.393 49.4478L210.88 63.2349H176.138L167.734 37.4097H202.476L204.855 44.7251" stroke="#F7A02C" stroke-width="1.36101" stroke-linecap="round" stroke-linejoin="round"/>
<path d="M180.473 91.5508L174.636 73.6194H209.378L217.783 99.4469H183.04L182.179 96.7975" stroke="#F7A02C" stroke-width="1.36101" stroke-linecap="round" stroke-linejoin="round"/>
<path d="M165.354 46.2834H153.59L152.095 41.6877H163.859L165.354 46.2834Z" stroke="#F7A02C" stroke-width="1.36101" stroke-linecap="round" stroke-linejoin="round"/>
<path d="M211.54 49.4479H199.776L198.282 44.8545H210.045L211.54 49.4479Z" stroke="#F7A02C" stroke-width="1.36101" stroke-linecap="round" stroke-linejoin="round"/>
<path d="M184.52 96.3598H172.754L171.259 91.7642H183.022L184.52 96.3598Z" stroke="#F7A02C" stroke-width="1.36101" stroke-linecap="round" stroke-linejoin="round"/>
<path d="M120.649 43.6182L129.054 69.4457" stroke="#F7A02C" stroke-width="1.36101" stroke-linecap="round" stroke-linejoin="round"/>
<path d="M172.014 64.4709L173.631 69.4455H195.598" stroke="#F7A02C" stroke-width="1.36101" stroke-linecap="round" stroke-linejoin="round"/>
<path d="M165.658 73.5718H170.621L174.838 86.5309" stroke="#F7A02C" stroke-width="1.36101" stroke-linecap="round" stroke-linejoin="round"/>
<path d="M166.497 33.5942C166.767 33.7984 201.314 33.8211 201.24 33.5942" stroke="#F7A02C" stroke-width="1.36101" stroke-linecap="round" stroke-linejoin="round"/>
<path d="M83.9971 18.2715C83.9971 18.2715 80.0003 18.6798 82.5159 27.2565C85.0315 35.8331 112.832 133.325 112.832 133.325" stroke="#4D2E44" stroke-width="1.36101" stroke-linecap="round" stroke-linejoin="round"/>
<path d="M267.789 117.029H108.393" stroke="#4D2E44" stroke-width="1.36101" stroke-linecap="round" stroke-linejoin="round"/>
<path d="M380.891 124.031H261.179" stroke="#4D2E44" stroke-width="1.36101" stroke-linecap="round" stroke-linejoin="round"/>
<path d="M262.041 117.029C262.041 117.029 261.281 135.028 251.751 134.06" stroke="#4D2E44" stroke-width="1.36101" stroke-linecap="round" stroke-linejoin="round"/>
<path d="M145.962 120.633H136.732C135.83 120.633 134.964 120.992 134.326 121.63C133.688 122.268 133.329 123.133 133.329 124.036V127.316C133.329 128.218 133.688 129.084 134.326 129.722C134.964 130.36 135.83 130.718 136.732 130.718H145.962C146.864 130.718 147.73 130.36 148.368 129.722C149.006 129.084 149.364 128.218 149.364 127.316V124.036C149.364 123.133 149.006 122.268 148.368 121.63C147.73 120.992 146.864 120.633 145.962 120.633ZM148.003 127.316C148.003 127.857 147.788 128.377 147.406 128.759C147.023 129.142 146.503 129.357 145.962 129.357H136.732C136.191 129.357 135.671 129.142 135.288 128.759C134.906 128.377 134.69 127.857 134.69 127.316V124.036C134.69 124.004 134.69 123.975 134.69 123.943H147.994C147.994 123.975 147.994 124.004 147.994 124.036L148.003 127.316Z" fill="#F7A02C"/>
<path d="M166.497 120.633H157.265C156.363 120.633 155.497 120.992 154.859 121.63C154.221 122.268 153.863 123.133 153.863 124.036V127.316C153.863 128.218 154.221 129.084 154.859 129.722C155.497 130.36 156.363 130.718 157.265 130.718H166.497C167.4 130.718 168.265 130.36 168.903 129.722C169.541 129.084 169.9 128.218 169.9 127.316V124.036C169.9 123.133 169.541 122.268 168.903 121.63C168.265 120.992 167.4 120.633 166.497 120.633ZM168.539 127.316C168.539 127.857 168.324 128.377 167.941 128.759C167.558 129.142 167.039 129.357 166.497 129.357H157.265C156.724 129.357 156.204 129.142 155.822 128.759C155.439 128.377 155.224 127.857 155.224 127.316V124.036C155.224 124.004 155.224 123.975 155.224 123.943H168.539C168.539 123.975 168.539 124.004 168.539 124.036V127.316Z" fill="#F7A02C"/>
<path d="M121.216 121.466H116.054C114.682 121.466 113.57 122.578 113.57 123.95V127.157C113.57 128.529 114.682 129.641 116.054 129.641H121.216C122.588 129.641 123.7 128.529 123.7 127.157V123.95C123.7 122.578 122.588 121.466 121.216 121.466Z" fill="#F7A02C"/>
<path d="M30.4934 126.175C35.8263 133.928 56.8064 132.651 76.6295 126.735C96.4527 120.82 115.232 125.667 115.232 125.667" stroke="#4D2E44" stroke-width="3.40254" stroke-linecap="round" stroke-linejoin="round"/>
<path d="M173.411 15.4587H149.226C148.149 15.4568 147.105 15.8343 146.277 16.5249L144.839 17.7226L151.238 17.6636C151.207 17.8891 151.191 18.1164 151.191 18.3441V19.7346C151.191 19.9491 151.233 20.1615 151.315 20.3596C151.397 20.5578 151.517 20.7378 151.669 20.8895C151.821 21.0411 152.001 21.1614 152.199 21.2435C152.397 21.3256 152.609 21.3678 152.824 21.3678H173.405C174.312 21.3678 175.049 20.0794 175.049 18.4915V18.3396C175.056 16.7449 174.321 15.4587 173.411 15.4587Z" fill="#4D2E44"/>
<path d="M166.273 13.2676H155.963V15.9533H166.273V13.2676Z" fill="#4D2E44"/>
<path d="M174.021 0H148.509C147.787 0 147.095 0.286784 146.584 0.797264C146.074 1.30774 145.787 2.0001 145.787 2.72203V10.5456C145.787 11.2675 146.074 11.9599 146.584 12.4704C147.095 12.9808 147.787 13.2676 148.509 13.2676H174.021C174.743 13.2676 175.436 12.9808 175.946 12.4704C176.457 11.9599 176.744 11.2675 176.744 10.5456V2.72203C176.744 2.0001 176.457 1.30774 175.946 0.797264C175.436 0.286784 174.743 0 174.021 0V0ZM153.379 11.8295C153.56 11.8295 153.733 11.9012 153.861 12.0288C153.988 12.1564 154.06 12.3295 154.06 12.51C154.06 12.6905 153.988 12.8636 153.861 12.9912C153.733 13.1188 153.56 13.1905 153.379 13.1905C152.752 13.1899 152.151 12.9404 151.708 12.4967C151.265 12.0531 151.016 11.4517 151.016 10.8246V2.44302C151.016 1.81633 151.264 1.21524 151.707 0.771681C152.15 0.32812 152.75 0.0783259 153.377 0.0771242C153.558 0.0771242 153.731 0.14882 153.858 0.27644C153.986 0.40406 154.058 0.57715 154.058 0.757632C154.058 0.938113 153.986 1.1112 153.858 1.23882C153.731 1.36644 153.558 1.43814 153.377 1.43814C153.111 1.43874 152.856 1.54488 152.668 1.73326C152.48 1.92165 152.375 2.1769 152.375 2.44302V10.8359C152.378 11.1001 152.484 11.3524 152.672 11.5384C152.86 11.7243 153.113 11.8289 153.377 11.8295H153.379ZM166.271 11.4756C164.113 11.4756 162.358 9.41142 162.358 6.87312C162.358 4.33483 164.116 2.26836 166.271 2.26836C168.425 2.26836 170.183 4.33256 170.183 6.86859C170.183 9.40461 168.432 11.4756 166.271 11.4756Z" fill="#4D2E44"/>
<path d="M166.271 3.62939C164.864 3.62939 163.719 5.08341 163.719 6.86861C163.719 8.65381 164.853 10.1101 166.271 10.1101C167.688 10.1101 168.822 8.65608 168.822 6.86861C168.822 5.08114 167.681 3.62939 166.271 3.62939Z" fill="#4D2E44"/>
<path d="M158.964 8.53586C159.721 8.53586 160.334 7.79144 160.334 6.87316C160.334 5.95487 159.721 5.21045 158.964 5.21045C158.207 5.21045 157.594 5.95487 157.594 6.87316C157.594 7.79144 158.207 8.53586 158.964 8.53586Z" fill="#F7A02C"/>
<path d="M0.68042 134.062H416.856" stroke="#4D2E44" stroke-width="1.36101" stroke-linecap="round" stroke-linejoin="round"/>
</g>
<defs>
<clipPath id="clip0">
<rect width="417.537" height="134.777" fill="white"/>
</clipPath>
</defs>
</svg>
