<svg width="42" height="42" viewBox="0 0 42 42" fill="none" xmlns="http://www.w3.org/2000/svg">
<path d="M36.34 0H5.65958C2.53394 0 0 2.53384 0 5.65958V36.3402C0 39.466 2.53384 41.9998 5.65958 41.9998H20.791L20.8168 26.9913H16.9176C16.4109 26.9913 15.9996 26.5816 15.9977 26.0749L15.979 21.237C15.977 20.7275 16.3895 20.3135 16.899 20.3135H20.7911V15.6389C20.7911 10.2141 24.1043 7.26021 28.9436 7.26021H32.9146C33.4226 7.26021 33.8346 7.67211 33.8346 8.18027V12.2596C33.8346 12.7675 33.4229 13.1793 32.9151 13.1796L30.4781 13.1808C27.8464 13.1808 27.3368 14.4313 27.3368 16.2666V20.3136H33.1196C33.6706 20.3136 34.0982 20.7947 34.0332 21.3419L33.4598 26.1798C33.4049 26.6427 33.0124 26.9915 32.5462 26.9915H27.3625L27.3368 42H36.3402C39.4658 42 41.9997 39.4662 41.9997 36.3405V5.65958C41.9996 2.53384 39.4657 0 36.34 0Z" fill="#475993"/>
</svg>
