<svg width="42" height="42" viewBox="0 0 42 42" fill="none" xmlns="http://www.w3.org/2000/svg">
<path d="M0.126251 12.3419C0.22847 10.1065 0.583511 8.57996 1.10262 7.24438C1.62973 5.84312 2.45645 4.57388 3.52478 3.52478C4.57356 2.45645 5.84312 1.62941 7.24438 1.10197C8.58028 0.583191 10.1065 0.22847 12.3419 0.126892C14.5814 0.024353 15.2969 0 21 0C26.7031 0 27.4186 0.024353 29.6581 0.126251C31.8935 0.22847 33.4197 0.583511 34.7556 1.10262C36.1569 1.62973 37.4261 2.45645 38.4752 3.52478C39.5435 4.57356 40.3706 5.8428 40.898 7.24406C41.4168 8.57996 41.7715 10.1065 41.8731 12.3415C41.9756 14.5814 42 15.2966 42 20.9997C42 26.7031 41.9756 27.4186 41.8731 29.6581C41.7712 31.8932 41.4162 33.4197 40.8971 34.7556C40.3699 36.1566 39.5432 37.4261 38.4749 38.4749C37.4261 39.5432 36.1566 40.3699 34.7553 40.8971C33.4197 41.4165 31.8932 41.7712 29.6578 41.8734C27.418 41.9756 26.7028 41.9997 20.9997 41.9997C15.2966 41.9997 14.5811 41.9756 12.3415 41.8734C10.1062 41.7712 8.57996 41.4165 7.24406 40.8971C4.42328 39.8063 2.19337 37.5764 1.10262 34.7556C0.583191 33.4197 0.22847 31.8932 0.126251 29.6581C0.024353 27.4183 0 26.7031 0 21C0 15.2966 0.024353 14.5814 0.126251 12.3419ZM3.90642 29.4861C3.99966 31.5336 4.34189 32.6456 4.62932 33.3854C5.33588 35.217 6.78328 36.6644 8.61488 37.371C9.35477 37.6584 10.4667 38.0007 12.5143 38.0939C14.7281 38.1952 15.3924 38.2163 21 38.2163C26.6079 38.2163 27.2719 38.1952 29.4861 38.0939C31.5333 38.0007 32.6452 37.6584 33.3854 37.371C34.2974 37.0342 35.1225 36.4975 35.7999 35.7999C36.4975 35.1225 37.0342 34.2977 37.371 33.3854C37.6584 32.6456 38.0007 31.5336 38.0939 29.4861C38.1948 27.2719 38.2163 26.6076 38.2163 21.0003C38.2163 15.3927 38.1948 14.7288 38.0939 12.5143C38.0003 10.4667 37.6584 9.35477 37.371 8.61488C37.0342 7.70261 36.4972 6.87749 35.7999 6.20009C35.1225 5.5025 34.2974 4.96577 33.3851 4.62932C32.6452 4.34157 31.5333 3.99966 29.4857 3.9061C27.2715 3.80516 26.6073 3.78369 21 3.78369H21.0003C15.393 3.78369 14.7288 3.80516 12.5143 3.90642C10.4667 3.99966 9.35509 4.34189 8.61488 4.62932C7.70293 4.96609 6.87781 5.50282 6.20041 6.20009C5.50282 6.87749 4.96609 7.70261 4.62964 8.61488C4.34189 9.35477 3.99966 10.4667 3.90642 12.5143C3.80548 14.7285 3.78401 15.3927 3.78401 21C3.78401 26.6076 3.80516 27.2715 3.90642 29.4861Z" fill="url(#paint0_linear)"/>
<path d="M21.0006 10.2161C26.9562 10.2161 31.7842 15.0444 31.7842 21C31.7842 26.9556 26.9562 31.7836 21.0006 31.7836C15.0447 31.7836 10.2167 26.9556 10.2167 21C10.2167 15.0444 15.0447 10.2161 21.0006 10.2161ZM21.0006 27.9999C24.8663 27.9995 28.0005 24.8657 28.0002 20.9996C28.0002 17.1339 24.8663 13.9998 21.0003 13.9998C17.1342 14.0001 14.0004 17.1339 14.0004 20.9996C14.0004 24.8657 17.1346 27.9999 21.0006 27.9999Z" fill="url(#paint1_linear)"/>
<path d="M7.27043 9.79024C7.27043 11.1819 8.39868 12.3101 9.79033 12.3101C11.1823 12.3101 12.3105 11.1819 12.3105 9.79024C12.3105 8.39827 11.1823 7.27002 9.79033 7.27002C8.39868 7.27002 7.27043 8.39827 7.27043 9.79024Z" fill="url(#paint2_linear)"/>
<defs>
<linearGradient id="paint0_linear" x1="38.4754" y1="38.4751" x2="3.52458" y2="3.52423" gradientUnits="userSpaceOnUse">
<stop stop-color="#FFD600"/>
<stop offset="0.5" stop-color="#FF0100"/>
<stop offset="1" stop-color="#D800B9"/>
</linearGradient>
<linearGradient id="paint1_linear" x1="28.6257" y1="28.6251" x2="13.3751" y2="13.3746" gradientUnits="userSpaceOnUse">
<stop stop-color="#FF6400"/>
<stop offset="0.5" stop-color="#FF0100"/>
<stop offset="1" stop-color="#FD0056"/>
</linearGradient>
<linearGradient id="paint2_linear" x1="11.5723" y1="11.572" x2="8.00857" y2="8.00822" gradientUnits="userSpaceOnUse">
<stop stop-color="#F30072"/>
<stop offset="1" stop-color="#E50097"/>
</linearGradient>
</defs>
</svg>
