<svg width="42" height="42" viewBox="0 0 42 42" fill="none" xmlns="http://www.w3.org/2000/svg">
<path d="M38.2008 0H3.79924C1.701 0 0 1.701 0 3.79924V38.2006C0 40.299 1.701 42 3.79924 42H38.2006C40.299 42 42 40.299 42 38.2006V3.79924C42 1.701 40.299 0 38.2008 0ZM12.9966 36.2656C12.9966 36.8762 12.5016 37.3712 11.8909 37.3712H7.18453C6.57388 37.3712 6.0789 36.8762 6.0789 36.2656V16.5365C6.0789 15.9258 6.57388 15.4308 7.18453 15.4308H11.8909C12.5016 15.4308 12.9966 15.9258 12.9966 16.5365V36.2656ZM9.53774 13.5711C7.06842 13.5711 5.06661 11.5692 5.06661 9.09993C5.06661 6.63061 7.06842 4.6288 9.53774 4.6288C12.0071 4.6288 14.0089 6.63061 14.0089 9.09993C14.0089 11.5692 12.0072 13.5711 9.53774 13.5711ZM37.5922 36.3546C37.5922 36.916 37.137 37.3712 36.5756 37.3712H31.5253C30.9639 37.3712 30.5087 36.916 30.5087 36.3546V27.1006C30.5087 25.7201 30.9137 21.0511 26.901 21.0511C23.7885 21.0511 23.1572 24.2469 23.0304 25.681V36.3546C23.0304 36.916 22.5753 37.3712 22.0138 37.3712H17.1293C16.5679 37.3712 16.1127 36.916 16.1127 36.3546V16.4474C16.1127 15.886 16.5679 15.4308 17.1293 15.4308H22.0138C22.5752 15.4308 23.0304 15.886 23.0304 16.4474V18.1686C24.1845 16.4366 25.8997 15.0998 29.5516 15.0998C37.6385 15.0998 37.5922 22.6549 37.5922 26.8061V36.3546Z" fill="#0077B7"/>
</svg>
